<?xml version="1.0" encoding="utf-8"?>
<!-- Generator: Adobe Illustrator 21.1.0, SVG Export Plug-In . SVG Version: 6.00 Build 0)  -->
<svg version="1.1" id="Layer_1" xmlns="http://www.w3.org/2000/svg" xmlns:xlink="http://www.w3.org/1999/xlink" x="0px" y="0px"
	 viewBox="0 0 4699.4 3762.3" style="enable-background:new 0 0 4699.4 3762.3;" xml:space="preserve">
<style type="text/css">
	.st0{fill:#010202;}
	.st1{fill:#020203;}
	.st2{fill:#FDCF02;}
	.st3{fill:#49AD38;}
	.st4{fill:#069AD7;}
	.st5{fill:#E52717;}
	.st6{fill:#E00914;}
	.st7{fill:#E8BB07;}
	.st8{fill:#109CD9;}
	.st9{fill:#00923C;}
	.st10{fill:#00913C;}
	.st11{fill:#E00814;}
	.st12{fill:#0A9BD8;}
	.st13{fill:#E7BA07;}
</style>
<path class="st0" d="M3368.2,3183.8l7.5-8.2c3.5-3.8,11.7-12.4,22.1-23.3l0.2-0.2c4.5-4.8,9.9-10.3,15.4-16.1l-55.8,9.6l-2.7-128.1
	l211.5-8.6l29.9,94.3l-30,28.1c1.7-0.2,3.2-0.2,4.6-0.2c1.5,0,2.8,0.1,4.2,0.2l20,2.3l2.4,115.5l-216.4,15.2L3368.2,3183.8z"/>
<path class="st0" d="M3579.9,3147.3l-6.7-0.8c-0.8-0.1-1.5-0.2-2.5-0.2c-8.9,0-27.6,4.5-53,10.8c-0.8,0.2-1.7,0.5-2.5,0.6l63.5-59.4
	l-23.4-73.9l-184.8,7.5l2,95.2l83.6-14.4c-13.4,14.5-34.1,36.1-47.3,49.9c-10.4,10.8-18.6,19.4-21.9,23.1l-2.5,2.8l9.5,59.4
	l187.7-13.2L3579.9,3147.3z"/>
<path class="st0" d="M3168.3,3257.6l-3.2-18.1c-1.5-8.4,0.5-19,7.6-48.8c1.5-6.5,3.2-13.3,3.8-16.5c0.1-0.6,0.2-1.1,0.2-1.4
	c-0.5-0.7-1.3-1.8-1.9-2.8c-1-1.4-2.2-3-3.4-4.8c-2.4-3.5-7-10.3-12.8-18.8l-0.1-0.2c-55.2-81-60.7-91.2-62.1-99.8l-3.2-19.7
	l123.9-39l9.8,12.6c6.8,8.8,9.4,18.2,11.4,25.8v0.1c0.3,1.2,0.7,2.5,1.1,3.8l7.4,23.7c15.7-24,23.2-35.2,29.7-41.3l9.1-8.5l12.1,3
	c6.5,1.6,15.7,6.3,37.8,19.3c1.7,1,3.1,1.8,3.8,2.3c2.8,1.6,5.9,3.5,9.3,5.5c8,4.8,19,11.4,25.1,13.8l23.7,9.5l-11.9,22.6
	c-6,11.4-44.6,49.5-52.3,56.9c-8.6,8.4-16.4,16.3-23.3,23.6c-1.5,1.6-3.2,3.4-4.9,5.3c-4,4.3-8.3,9-12.5,13.2l6.2,85.4
	L3168.3,3257.6z"/>
<path class="st0" d="M3368.2,3061.9c-7.2-2.9-18.3-9.5-27.2-14.8c-3.3-1.9-6.4-3.8-9-5.3c-0.8-0.5-2.3-1.3-4.1-2.4
	c-16.8-9.9-28.4-16.4-33.7-17.6l-4.1-1l-3.1,2.8c-5.5,5.1-14,18-27.4,38.6c-5.4,8.2-12.4,19.1-18,26.9l-17-54.6
	c-0.4-1.4-0.8-2.8-1.2-4.2c-1.9-7-3.8-14.1-8.8-20.4l-3.3-4.2l-101,31.7l1.1,6.6c1,6.3,15,28.1,59.6,93.6
	c5.9,8.7,10.6,15.5,13.1,19.2c1,1.5,2.1,3,3,4.2c4,5.5,5.8,8.1,4.4,15.9c-0.7,3.7-2.2,10.4-3.9,17.4c-6,25.4-8.4,37-7.4,42.6
	l1.1,6.1l101,5.1l-5.5-75.3c5.5-5,11.6-11.6,17.1-17.6c1.8-1.9,3.5-3.7,5-5.4c7-7.5,15-15.5,23.7-24.1c0.5-0.5,44.5-43.8,49.4-53.1
	l4-7.5L3368.2,3061.9z"/>
<path class="st0" d="M2948.2,3291.4c-8.1-4.8-16.2-11.2-24.2-17.4c-3.9-3.1-8-6.2-11.7-8.9c-5.7-4.1-11.6-8.8-16.4-12.7l-0.6-0.5
	c-1.8-1.4-3.6-2.8-5.6-4.2c-4.1-3-8.7-6.5-13.4-10.8l-10.1-9.5l3.8-13.4c3.2-11.4,10.2-18.4,14.9-23c1.4-1.3,2.5-2.5,3.5-3.5
	l27.7-32c-3.3-2.3-6.6-4.5-9.1-6.2c-3.3-2.2-6.3-4.2-8.8-6c-4.9-3.5-9.8-7.1-14.4-10.5c-7.9-5.8-15.4-11.4-22.7-16l-17.1-10.7
	l8.3-18.4c1.8-3.9,3.6-7.9,37.9-41c32.7-31.6,37.5-34.3,39.3-35.3l11.3-6.5l11.4,6.3c11.3,6.3,22.5,20.5,35.5,36.9
	c1.7,2.1,3.3,4.2,5,6.3c1.7-2.6,3.3-5.3,4.9-7.8c11.6-18.5,19.1-30.3,26.2-36.6l11.2-10.1l13.7,6.3c12.1,5.5,26.2,16,37.7,24.4
	l2.5,1.8c4.3,3.2,9,6.1,13.4,9c7.1,4.5,15.1,9.8,23.2,16.4l12.8,10.8l-6.2,15.4c-3.8,9.3-12.7,19.1-25.9,33.1
	c-2.8,2.9-5.1,5.4-6.5,7c-2.2,2.5-5.3,5.8-9,9.7c-1.4,1.5-3.2,3.4-5.1,5.4l62.9,48.9l-8.4,16.9c-3.5,7.1-13.1,18.4-46.3,54.7
	c-5.9,6.5-11.4,12.5-13.9,15.4l-10.7,12.3l-15.1-5.9c-9.8-3.8-19.1-13.1-31-25.7c-2.2-2.3-4.3-4.5-5.5-5.6c-1.9-1.8-4.3-4.1-7.1-6.9
	l10.8-11l-10.8,10.9c-0.3-0.3-0.6-0.6-1-1c-24.6,37.2-30.5,44.5-36.4,48.4l-12.1,8L2948.2,3291.4z"/>
<path class="st0" d="M3062.9,3141.5c4.5-5.5,12.1-13.4,16.3-18c3.5-3.8,6.6-7.1,8.6-9.3c1.6-1.9,4.1-4.5,6.9-7.5
	c11.3-11.9,20.1-21.6,22.8-28.4l2.1-5.1l-4.2-3.6c-7.2-6.1-14.5-10.8-21.6-15.3c-4.7-3-9.5-6.1-14.3-9.6l-2.5-1.8
	c-10.8-8-24.4-18-34.9-22.8l-4.5-2.1l-3.8,3.4c-5.5,4.8-12.4,15.8-23.4,33.3c-5.6,9-11.8,18.8-16.4,25.1c-5.5-5.7-12.1-14-18.5-22.2
	c-11.4-14.5-22.3-28.2-31-33l-3.8-2.1l-3.8,2.2c-4.7,2.7-31,28-36.3,33c-32.2,31-33.9,34.7-34.6,36.3l-2.8,6.1l5.7,3.5
	c7.9,5,15.6,10.7,23.7,16.7c4.6,3.4,9.3,6.9,14.1,10.3c2.3,1.6,5.3,3.7,8.5,5.8c6.8,4.5,17.1,11.4,23.1,16.5l-38.5,44.5
	c-1.3,1.5-2.8,2.9-4.2,4.5c-4.1,4.1-8.9,8.8-10.9,16.2l-1.2,4.5l3.4,3.2c4,3.8,8.1,6.8,11.9,9.6c2.1,1.5,4.1,3,6.1,4.6l0.6,0.5
	c4.7,3.7,10.5,8.4,15.9,12.3c3.9,2.8,8.1,6.1,12.1,9.2c7.5,5.9,15.4,12,22.6,16.3l4.1,2.5l4-2.7c4.4-2.9,13.4-15.6,39-54.6
	c1.2-1.8,2.2-3.5,3.2-4.9c4.7,4.2,10.7,10.2,14.5,14c2.7,2.7,5.1,5,6.8,6.7c1.5,1.4,3.5,3.6,6,6.2c10.3,10.8,18.7,19.3,25.5,22
	l5.1,2l3.5-4.1c2.6-3,8-8.8,14.2-15.7c26.8-29.3,41-45.3,44-51.2l2.8-5.6L3062.9,3141.5z"/>
<path class="st0" d="M2724.4,3281.9c-1.5-2.2-3-5-4.8-8.8l-6.5,10.9l-11.1,1.4c-1.5,0.2-3.1,0.2-5,0.2c-12.6,0-61-4.6-70.2-7.1h-0.1
	c-4.5-1.2-10.5-2.8-15.8-8.4c-5.9-6.1-7-13.1-7.6-17.1c-0.2-0.9-0.3-1.9-0.5-3.1c-2-10.5-5.8-29.6-10.2-51.6l-0.1-0.2
	c-15.6-78-22.7-114.6-23.4-125.3l-1.5-21.5l139.5-19.2l5.5,87.2c2.9-2.3,6-4.3,9.4-5.9l18.1-8.4l12.6,19.4l17.4-64.4l115.9,35.8
	l-3.4,19.9c-2.6,15.4-48.2,152.4-50.8,159.1l-5.5,13.8l-94.7,4.5L2724.4,3281.9z"/>
<path class="st0" d="M2780.8,3079.3l-22.3,82.2l-24.1-37l-6.1,2.8c-8,3.7-15.4,12.8-23.1,22.4c-1.9,2.3-3.8,4.7-5.7,6.9l-6.8-107
	l-108.9,15l0.5,7.1c0.8,10.7,10.5,60,23.2,123.3c4.5,22.3,8.3,41.5,10.3,52.1c0.2,1.4,0.5,2.5,0.6,3.5c0.5,3.2,0.9,6.1,3.5,8.8
	c2.4,2.5,5.3,3.2,8.8,4.1c7.2,1.9,54.3,6.5,66.2,6.5c1.3,0,2.3-0.1,3.1-0.2l3.7-0.5l18.7-31c5.7,15.5,11,29,14.8,34.7l2.4,3.7
	l76-3.5l1.8-4.6c2.8-7,47.7-142.8,49.9-155.9l1.2-6.6L2780.8,3079.3z"/>
<path class="st0" d="M2410.9,3268c-6.6-9.5-19.1-33-31.3-55.6c-6.1-11.4-11.8-22.1-15.5-28.7c-20.1-35.4-44.7-79.8-47.6-90.1
	l-4.9-17.8l16.4-8.7c14.3-7.5,29.9-15.6,45-23.4l0.1-0.1c13-6.7,26.4-13.6,38.7-20.1l16.1-8.5l12,13.8c3.2,3.6,5.7,6.5,21.8,52.8
	c1.5-9.8,2.7-18.3,3.4-23.6l3-23.9l128.6,22.1l-2.5,21.7c-1,8.6-7.5,29.5-25.7,82.7v0.1c-1.3,3.8-2.4,6.8-3.1,9
	c-2.3,6.9-4.9,14.4-7.7,22.2l-0.1,0.2c-7.1,20.4-15.1,43.4-20.9,63.6l-4.5,15.6l-113.9,7.5L2410.9,3268z"/>
<path class="st0" d="M2481.2,3051.9l-1,8c-2,15.8-8.4,57.5-13.4,84.4c-30.7-91.5-35.9-102.5-38.5-105.5l-4-4.6l-5.4,2.8
	c-12.4,6.5-25.8,13.4-38.9,20.2c-15.1,7.8-30.7,15.9-45,23.4l-5.5,2.9l1.6,5.9c2.8,10.1,38.9,73.8,46.1,86.5
	c3.8,6.7,9.6,17.5,15.8,29c11.4,21.3,24.3,45.4,30.4,54.1l2.5,3.5l94.4-6.1l1.5-5.2c5.9-20.6,14-43.9,21.1-64.5
	c2.8-7.8,5.3-15.3,7.7-22.2c0.8-2.2,1.8-5.4,3.2-9.1c14.3-41.8,24.1-71.2,25.1-79.5l0.8-7.2L2481.2,3051.9z"/>
<path class="st0" d="M2237.5,3292.3c-12.6,0-25.4-0.2-37.8-0.5c-8.8-0.2-17-0.3-25.1-0.4c-0.8,0-1.6,0-2.5,0c-3.5,0-6.4,0.1-8.8,0.2
	c-2.1,0.1-3.8,0.1-5.5,0.1c-17,0-24.2-5.6-36.5-16.3c-8.5-7.4-15.1-12.5-20.4-16.7c-10.8-8.5-18.6-14.6-22.8-25.6
	c-3.9-10.1-3.1-19.6-1.8-35.3c0.9-10.4,2.2-24.6,2.8-45.4c0.9-32,3-87.5,6.4-98.7l2.5-8.2l6.6-4.2c5.5-4.5,11-5.1,12.9-5.3
	c0.3,0,0.8-0.1,1.7-0.2l3-0.5l119.6,13.8l-1.8,16.8l122.9,17.4l3.2,16.1c1.8,8.8,0.2,23.9-12.4,91.1c-1.1,5.8-2.1,11-2.5,13.7
	l-0.5,2.5c-4.3,24.8-5.9,29.4-21.6,45.1l-0.1,0.1c-0.8,0.8-1.6,1.7-2.5,2.6c-4.1,4.2-8.1,8.5-12.1,13.1c-5,5.6-10.2,11.4-16.4,17.6
	l-6.1,6.1l-8.6,0.5C2262.9,3291.9,2251.3,3292.3,2237.5,3292.3L2237.5,3292.3z"/>
<path class="st0" d="M2340.9,3102.1l-1.1-5.4l-101.9-14.4l-6.3,108.3l-31.7,4.5l14.8-132.8l-102.3-11.8l-1,0.2
	c-1.2,0.2-1.8,0.2-2.2,0.3c-1.2,0.2-3.3,0.4-5.4,2.3c-0.1,0-0.2,0.2-0.4,0.2l-2.4,1.5l-0.8,2.8c-3.2,10.7-5.5,86.2-5.8,94.8
	c-0.6,21.2-1.8,35.7-2.8,46.3c-1.2,14.4-1.8,21.7,0.8,28.5c2.8,7.1,8.1,11.3,18,19.1c5.5,4.2,12.1,9.5,21,17.2
	c11.1,9.7,14.9,12.5,26.4,12.5c1.5,0,3.2,0,5.1-0.1c2.6-0.1,5.5-0.2,9.2-0.2c0.8,0,1.7,0,2.5,0c8.1,0.1,16.4,0.2,25.2,0.4
	c12.3,0.2,25.1,0.5,37.5,0.5c13.4,0,24.8-0.3,34.7-0.9l2.8-0.2l2.1-2c5.9-5.8,10.9-11.4,15.8-16.9c4.2-4.7,8.2-9.1,12.7-13.7
	c0.9-1,1.8-1.8,2.7-2.7c12.8-12.8,13.4-14.2,17.4-36.9l0.5-2.5c0.5-2.8,1.4-7.7,2.5-13.8C2339.1,3130.3,2342.2,3108.8,2340.9,3102.1
	z"/>
<path class="st0" d="M1957.2,3292.3c-13.1,0-17.4-0.6-21.3-1.9l-15.6-5.1l-1.8-116.6c-2.8,0.5-5.8,0.9-8.7,1.5
	c-11.5,1.9-23.5,3.9-33.8,3.9c-5,0-9.4-0.5-13.4-1.4l-16.1-3.8l-10.9-120.9l22.1-2.8c23.9-3,51.9-3.8,79-4.5
	c9.9-0.2,19.3-0.5,28-0.8c7.8-0.3,15.3-0.8,22.7-1.2c9.9-0.5,20.1-1.1,30.5-1.5c2.3-0.1,4.5-0.2,6.8-0.2c6.8-0.2,13.8-0.5,20.9-0.6
	c1.8,0,4-0.2,6.3-0.4c3.2-0.2,6.8-0.5,10.5-0.5c4.8,0,8.8,0.5,12.6,1.6l1.7,0.5l10.2,4.7l3.6,5.7c3.5,5.4,5.2,11.1,6.7,40.5
	c0.2,2.8,1.3,27.3,0.5,35.7l-1.8,17.8l-64.2,9.7c2,12.7,5,29.1,7.6,43.3c7.9,42.9,11.3,62.9,10.3,73.8l-1.8,18.7l-18.7,2.1
	C2019.4,3290.3,1979.4,3292.3,1957.2,3292.3L1957.2,3292.3z"/>
<path class="st0" d="M2082,3088.9c-1.4-28.4-3.2-31.2-4.3-33l-1.2-1.9l-5.1-2.3l-0.5-0.2c-2.4-0.7-5.1-1-8.5-1c-3,0-6.1,0.2-9.1,0.5
	c-2.6,0.2-5,0.4-7.3,0.5c-6.9,0.2-13.9,0.4-20.7,0.5c-2.3,0.1-4.6,0.2-6.9,0.2c-10.2,0.3-20.4,0.8-30.1,1.4
	c-7.4,0.4-15.1,0.8-22.9,1.2c-8.9,0.4-18.3,0.6-28.3,0.9c-26.7,0.7-54.3,1.5-77.5,4.4l-7.4,0.9l8.6,95.2l5.4,1.3c2.8,0.7,6,1,9.8,1
	c9.1,0,20.4-1.9,31.3-3.7c9.3-1.5,18.8-3.2,26.3-3.5l2,122.6l5.2,1.7c1.7,0.5,4.5,1.2,16.4,1.2l0,0c21.4,0,61.1-1.9,70.3-2.9
	l6.2-0.7l0.6-6.2c0.8-9.4-3.2-32.6-10.1-69.6c-3.9-21.2-8.6-46.6-9.7-59l67.3-10.1l0.6-5.9C2083,3117.4,2082.6,3101.8,2082,3088.9z"
	/>
<path class="st0" d="M1711.2,3292.3c-0.7,0-1.2,0-1.8,0c-15-0.5-29.4-11.1-51.6-28.2c-6.9-5.4-18.6-14.4-22.2-15.8l-18.2-6.9
	l3.8-19.1c2.4-11.9,20.9-40.9,30-53.5c-7.5-3.7-13.1-6.4-15.3-7.1l-20.2-8l6.8-20.7c3-9.1,11.1-22.7,23.3-42.5
	c2.7-4.4,5-8.1,6.5-10.8c0.7-1.2,1.5-2.8,2.4-4.5c4.3-8.6,11.5-23,28.7-27.4l1.2-0.3l67.8-9.6c2.2-0.3,4.1-0.7,5.7-0.9h0.2
	c4.8-0.8,8.5-1.5,12.7-1.5c10.3,0,16.8,3.8,25.8,9h0.1c2.8,1.6,7.8,4.2,13,7c20.2,10.7,34,18.2,40.9,24.6l9.5,8.8l-2.6,12.7
	c-2.3,11.2-9.5,23.6-17,36.7c-3,5.2-6.3,10.9-8.5,15.4c18.9,8.8,27.6,13.8,32.6,19.3l11.7,12.7l-8.8,14.8
	c-2.4,3.9-9.6,18.7-15.4,30.7c-20.5,42-23,46.3-29,50.9l-2.4,1.8l-2.7,1.2c-2.5,1.1-8.5,3.5-54,7.8
	C1744,3290.3,1718.7,3292.3,1711.2,3292.3z"/>
<path class="st0" d="M1853.4,3179.1c-4.8-5.3-20.3-12.5-54.3-27.9c-17.1-7.7-37.6-16.9-47.7-22.7l4.8-7.2
	c5.3,3.1,11.8,7.7,18.2,12.2c12.5,8.8,24.4,17.2,33,18.9l6.3,1.2l2.3-6c2.2-5.6,6.8-13.6,11.2-21.3c6.9-12,13.4-23.3,15.2-32.1
	l0.8-4.2l-3.2-2.9c-5.5-5.1-19.6-12.8-37.6-22.3c-5.6-3-10.5-5.5-13.5-7.3l-0.1-0.1c-8.2-4.8-12-6.9-18.1-6.9
	c-2.8,0-5.7,0.5-10.1,1.2c-1.8,0.3-3.8,0.6-6.2,1l-67,9.5l-0.4,0.1c-10.5,2.7-15.1,11.9-18.7,19.4c-1,1.9-1.9,3.8-2.8,5.5
	c-1.6,2.8-4,6.6-6.7,11.1c-10.8,17.7-19.4,31.7-21.8,39.3l-2.2,6.9l6.8,2.7c9.9,3.9,76.2,37.5,96.3,48.6c-1.5,2.2-3,4.4-4.8,6.8l0,0
	c-6.6-2.5-16.2-8.5-25-13.8c-12.8-7.9-25-15.4-34.3-17.3l-4.2-0.8l-2.9,3.2c-4.6,4.9-28.4,41.7-30.4,51.5l-1.3,6.4l6.1,2.3
	c5.6,2.2,16.1,10.2,26.1,18.1c19.8,15.4,32.6,24.7,42.6,25.1c0.4,0,0.8,0,1.2,0l0,0c11.8,0,91.7-6.7,101-10.5l0.9-0.4l0.8-0.6
	c2.9-2.2,5.7-6.9,24.4-45.3c6.5-13.4,13.4-27.3,16.1-31.8l2.9-4.9L1853.4,3179.1z"/>
<path class="st0" d="M1547.9,3279.3c-0.6-1-1.9-3.1-3.8-5.9v4.7l-104.7,5.1l-19.7-231.1l132.6-16.9h0.8c0,0,0.9,0,1.1,0
	c14,0,28.2,10.1,46.7,24.4c1.7,1.3,3.3,2.5,4.5,3.4c1.6,1.2,4.3,3.1,7.5,5.2c16.3,11.2,27.4,19.1,32.5,26.4l5.5,7.8l-1.6,9.4
	c-1.7,9.9-4.1,21.8-6.6,33.3c-1.3,6.1-2.6,12.4-3.8,18.2c-2.9,14.8-10.1,22-17.4,27.3l17.4,15.3c0.8,0.7,1.6,1.3,2.5,2
	c5.2,4.2,11.7,9.4,15.7,17.6l9.8,20.4l-109.1,54.5L1547.9,3279.3z"/>
<path class="st0" d="M1643,3232.2c-2.5-5.1-7-8.7-11.4-12.2c-1-0.8-1.9-1.5-2.9-2.4l-32.4-28.4l2.2-1.7c3.5-2.5,6.4-4.4,8.9-6.1
	c8.3-5.5,13.8-9,16.2-21.1c1.2-5.8,2.5-12.2,3.8-18.4c2.4-11.4,4.8-23.2,6.5-32.8l0.5-3.2l-1.8-2.6c-3.7-5.2-14.6-13-28.6-22.6
	c-3.3-2.2-6.1-4.2-7.9-5.5c-1.2-0.9-2.8-2.2-4.7-3.6c-15.1-11.6-28.3-21.2-37.3-21.2c-0.1,0-0.7,0-0.7,0l-117.1,14.9l17.1,201.7
	l75.3-3.7l0.2-39c12.8,18.1,30.7,44,32.7,48l3.3,7.2l81.3-40.6L1643,3232.2z M1551,3127.2l-3.5,21.5l-18.9,4.2l-1.7-33
	C1535.1,3121.8,1544.8,3124.7,1551,3127.2z"/>
<path class="st0" d="M1368.1,3281.6c-2.2-3.4-5.1-7.2-8.2-11.1c-0.9,0.8-1.8,1.6-2.7,2.3l-9.8,7.8l-97.4-31.9l-0.7-0.2
	c-18-7.1-20.4-20.7-21.7-27.2c-0.2-1.2-0.4-2.2-0.7-3.3l-19.3-71.3c-4.9-16.5-0.9-26.1,7-36.2c0.9-1.2,1.8-2.2,2.5-3.2
	c2.5-3.1,4.6-5.8,7.3-9.4l46.2-60.7l9.8-1.1c4.5-0.5,10.1-0.8,17-0.8c16.8,0,38.3,1.5,53.9,2.5c3.3,0.2,6.3,0.5,8.9,0.6
	c0.6,0,1.2,0.1,1.8,0.1c17.9,1,23.1,5.9,36.7,18.9l1.3,1.2c2,1.9,7.2,6.3,12.3,10.6c25.9,21.8,32.2,27.8,35,36.5
	c1.8,5.5,2.5,8.1-2.7,74.3c-0.3,3.5-0.5,6.1-0.6,7.6c-0.5,7-2.3,12.6-4.6,17.1c4.4,2.7,8.8,5.7,12.8,9.1l14.6,12.7l-9.8,16.6
	c-2.4,4.1-6.5,9.1-30,26.7c-23.8,17.9-29.3,20-31.4,20.8l-17.6,6.8L1368.1,3281.6z M1323.5,3160.8c3.2,1.2,6.5,2.5,9.8,3.7
	c2.2-2.4,4.5-4.8,6.6-7.1c0.7-0.8,1.4-1.5,2.1-2.2c-0.1-0.1-0.2-0.2-0.2-0.3c-1.2-1.5-2.2-2.9-3.2-4.2l-1.4-1.8
	c-1.1-1.5-2.1-2.8-3.1-4.2c-3.8,1.6-7.7,3.3-11.2,4.9L1323.5,3160.8z"/>
<path class="st0" d="M1442.4,3225.6c-5.4-4.6-11.9-8.5-18.3-12.1c-2.9-1.7-5.8-3.4-8.5-5.1c0.2-0.2,0.3-0.2,0.5-0.4
	c5.1-3.6,12-8.5,12.9-21.4c0.1-1.5,0.3-4.2,0.6-7.7c4.6-58.8,4.3-65.5,3.3-68.5c-1.4-4.4-6.8-9.6-30.2-29.4c-5.5-4.6-10.7-9-13-11.2
	l-1.3-1.2c-13.1-12.4-14.8-14.1-27-14.8c-0.6,0-1.3-0.1-2-0.2c-2.6-0.2-5.6-0.4-9-0.6c-15.4-1.1-36.6-2.5-52.9-2.5
	c-6.4,0-11.4,0.2-15.3,0.7l-3.3,0.4l-42,55.3c-2.8,3.8-5.1,6.6-7.7,9.9c-0.8,1-1.6,2-2.5,3.2c-5.5,6.9-7.6,11.4-4.3,22.5l19.4,71.5
	c0.5,1.6,0.7,3.1,0.9,4.5c1,5.5,2.2,11.7,12.1,15.7l0.2,0.1l89.1,29.1l3.2-2.6c1.6-1.3,3.8-3.2,6.1-5.5c1.9-1.8,5.1-4.8,7.9-7.1
	c2,2.6,4.1,5.1,6.1,7.7c4.8,5.9,9.8,12,13.2,17.5l3.4,5.3l5.8-2.3c5.1-2,22.4-14.8,27.7-18.7c23-17.2,25.1-20.9,26-22.3l3.3-5.5
	L1442.4,3225.6z M1308.7,3171.2l-1.8-31.1c7.5-3.8,24.1-11.1,32.8-14.2c3.1,4.6,6.4,9.1,9.8,13.8l1.4,1.9c0.9,1.2,1.9,2.6,3,4
	c2.6,3.5,5.7,7.5,7.7,10.8c-3.3,3.8-6.8,7.6-10.6,11.6c-4.4,4.5-8.8,9.2-12.8,14.2C1330.6,3180.1,1315.5,3174.4,1308.7,3171.2z"/>
<path class="st0" d="M1048.5,3277.9c-4.4,0-7.9-0.1-10.6-0.3l-19.7-1.5l-18.4-237.4l22.5-2.2c13.3-1.3,34.1-4.5,54.3-7.6
	c24.6-3.8,47.8-7.4,60.3-8c0.5,0,1,0,1.5,0c14.5,0,28.4,10,46.5,24.1c2.5,1.9,4.5,3.5,5.9,4.5c2.7,1.9,6.1,4.2,9.8,6.7
	c10.7,7.1,22.8,15.3,30.8,23.4l7.6,7.8l-1.2,10.8c-1.4,12.9-4.1,24-6.8,34.7c-1,4.1-2,7.8-2.8,11.6c-0.9,4-1.5,7.5-2.1,10.6
	c-2.4,13.7-4.6,26.5-24.1,40.2c-1.8,1.3-4.9,3.8-7.8,6.1c-14.1,11.3-23.4,18.3-34,20c-3.2,0.5-6.7,0.8-10.8,0.8
	c-6.8,0-14.3-0.7-21.6-1.4c-0.1,0-0.1,0-0.2,0l-0.5,47.3l-16.8,4.5C1095.9,3276.4,1064.8,3277.9,1048.5,3277.9z"/>
<path class="st0" d="M1220.6,3090.3c-6.8-7-18.3-14.7-28.4-21.4c-3.8-2.5-7.5-5-10.3-7c-1.6-1.2-3.8-2.9-6.4-4.9
	c-15.1-11.8-27.4-20.8-37-20.8c-0.2,0-0.5,0-0.7,0c-11.7,0.5-34.5,4.1-58.6,7.8c-20.4,3.2-41.6,6.5-55.2,7.8l-7.5,0.7l16.2,209.2
	l6.5,0.5c2.3,0.2,5.5,0.2,9.5,0.2c16.1,0,45.6-1.5,57.9-4.8l5.6-1.5l0.5-52c5.2,0.2,11.1,0.7,16.8,1.2c6.9,0.6,14.1,1.3,20.1,1.3
	l0,0c3.2,0,6-0.2,8.4-0.5c6.8-1.1,15-7.3,26.7-16.8c3.3-2.7,6.5-5.1,8.7-6.8c14.3-10,15.6-17.6,17.8-30.2c0.5-3.2,1.2-6.9,2.2-11.3
	c0.8-3.9,1.8-7.8,2.9-12c2.5-10.2,5.2-20.7,6.5-32.6l0.4-3.6L1220.6,3090.3z M1131.5,3143.2l-19.4,2.5l-1.2-35.1l25.7,7.1
	L1131.5,3143.2z"/>
<path class="st0" d="M3450.2,2794.2l106-32.4l29,41l-2.4-35.1l124.6-10.5l-0.4,227.1l-85.8,24.8l-9.4-7.5
	c-5.3-4.2-12.1-12-19.9-21.7l1.4,24.6l-107.2,14.6L3450.2,2794.2z"/>
<path class="st0" d="M3599.1,2781.7l5,74.6c-0.4-0.6-0.8-1.2-1.2-1.8l-52.9-74.8l-82.6,25.2l31.3,196.9l78.3-10.7l-3.3-59.3
	c4.4,5.5,9.1,11.7,13.8,17.8c13.6,17.6,26.4,34.3,33.7,40.1l3.2,2.5l67.1-19.4l0.3-198.9L3599.1,2781.7z"/>
<path class="st0" d="M3376.4,2966.6c-1.2,0.9-2.5,1.8-3.7,2.5l-15.9,10.3l-13.2-13.6c-1.8-1.8-3.5-3.8-5.1-5.8l-22.1,69.8L3204,2980
	l3.3-17.9c1.3-7.2,7.1-21.4,27.9-69.1c3.5-8.1,6.9-15.8,8.4-19.4l0.1-0.2l42.3-97.4l85.3,7l7,25.1c2.1-3.2,3.8-5.8,4.8-7.7l7.8-13.1
	l82.6,10.8l1.8,18.2c2,19.7,4.8,40.1,7.6,59.9l-15.2,2.2l15.2-2.2c1.5,10.9,3.2,22.2,4.5,33.3c0.5,4.1,1.5,10.9,2.8,18.8v0.2
	c6.8,45,9.9,70,8.6,81.8l-2.2,19.4l-120,6.9L3376.4,2966.6z"/>
<path class="st0" d="M3475.1,2930.9c-1.2-8-2.2-15-2.8-19.3c-1.4-11-3-22.3-4.5-33.2c-2.8-20-5.7-40.6-7.7-60.6l-0.6-6.1l-60.4-7.8
	l-2.6,4.4c-4.1,7-15.5,23.7-24.2,35.2l-12.8-46l-63.6-5.2l-38,87.3c-1.5,3.7-4.8,11.1-8.5,19.7c-16.9,38.7-25.7,59.5-26.8,65.7
	l-1.1,6l85.6,38l27-85.8c1.6,2.8,3.2,5.6,4.8,8.5c4.8,8.5,9.7,17.4,15.8,23.7l4.4,4.5l5.3-3.5c4.7-3.1,11.1-8.8,17.8-14.9
	c3-2.7,6.2-5.6,9.4-8.3l0.4,87.3l90.9-5.2l0.7-6.5C3484.9,2997.6,3480.3,2965.5,3475.1,2930.9z"/>
<path class="st0" d="M3080.5,3015c-5.2,0-9-0.3-12.1-0.9l-15.9-3.2l-35.1-238.7l15.6-7.2c14.4-6.7,83.3-14.3,96.4-14.3
	c1.3,0,2.5,0.1,3.5,0.2l21,1.5l2.2,136.2c7.7-2.3,16.1-5.1,23.7-7.6c19.7-6.5,36.8-12.1,47.8-13.2l26.1-2.7l-3.6,134.5l-20.7,2.3
	C3151.2,3010.5,3101.1,3015,3080.5,3015z"/>
<path class="st0" d="M3229.3,2883c-9.4,1-26.5,6.6-44.6,12.5c-15.1,5-33.3,10.9-43.6,12.8l-2.2-141.7l-7-0.5
	c-0.7-0.1-1.5-0.1-2.4-0.1c-14.1,0-79.3,8-89.9,12.9l-5.2,2.4l31.9,216.7l5.3,1.1c2,0.4,4.9,0.6,9,0.6c19.9,0,69.5-4.5,147.2-13.1
	l7.4-0.8l2.8-103.6L3229.3,2883z"/>
<path class="st0" d="M2834.9,2999c-3.5-14-5.8-34.1-7.8-51.9v-0.1c-0.8-6.9-1.5-13.4-2.3-18.8l-18.1-128.9l-0.1-0.5
	c0-0.4-0.1-0.4-0.2-0.8c-2.7-11.6,2.2-22.2,12.9-27.7c0.2-0.1,0.4-0.2,0.7-0.4c5.1-2.9,6.8-3.3,44.3-6.8c16.5-1.5,35.4-3.2,39.7-3.4
	l14.4-0.8l6.8,12c1.9,3.1,3.2,6.5,3.6,10.1l0.1,0.5c8.3-14,13.8-21.7,19.4-26.7l10.6-9.3l13.1,5.1c12,4.7,64.6,42.3,71.5,48.9
	l16,15.3l-57.2,64.8c5.5,4.5,11.7,9.2,17.8,13.8c18.4,14.2,34.3,26.5,41.4,36l13.2,17.8l-17.3,13.9c-6.4,5.1-12.1,9.9-18.2,14.9
	l-0.3,0.3c-3.2,2.7-6.5,5.4-10,8.3c-2.1,1.7-4.7,4.1-7.5,6.5c-8.5,7.7-18.2,16.3-28,20.9l-10.8,5.1l-10.4-5.8
	c-6.9-3.9-14.4-11.9-25.3-24.4l0.1,22.6l-107.4,8.6L2834.9,2999z"/>
<path class="st0" d="M3049,2938.7c-5.8-7.8-21.7-20-38.4-32.9c-11.2-8.7-22.7-17.5-30.4-24.4l57.9-65.5l-5.3-5.1
	c-6.5-6.3-57.2-42-66.5-45.7l-4.4-1.7l-3.5,3.1c-6.1,5.5-14.1,19-26.6,40.7c-3.6,6.3-8.1,14.1-12.2,20.8c-0.2-2-0.4-4-0.6-6
	c-0.2-2.7-0.5-5.4-0.8-8.1v-0.2l-4.6-30.4c-0.2-2-1-3.4-1.6-4.3l-2.2-4l-4.8,0.2c-3.6,0.2-21.4,1.7-39,3.3
	c-35.3,3.2-36.2,3.8-38,4.8c-0.5,0.3-0.9,0.5-1.2,0.7c-4.5,2.3-6.1,5.8-5,10.6c0.2,0.6,0.3,1.5,0.5,2.9v0.2l18,128.6
	c0.8,5.5,1.5,12.2,2.4,19.2c2,17.4,4.3,37,7.5,50l1.5,6.4l80.1-6.5l-0.2-48.8c0.4,0.5,0.8,0.9,1.2,1.5c3.9,4.8,6.5,7.5,9.9,10.9
	c1.5,1.5,3.2,3.3,5.2,5.5c1.7,1.8,4.2,4.8,7.2,8.2c11.1,12.8,19.4,22.2,24.9,25.3l3.5,1.9l3.6-1.7c7.7-3.6,16.5-11.5,24.3-18.4
	c2.8-2.6,5.6-5,7.9-6.9c3.6-3,7-5.8,10.2-8.5c6.1-5.1,11.9-9.9,18.4-15.1l5.8-4.6L3049,2938.7z"/>
<path class="st0" d="M2724.9,3026.5c-8.3,0-16.8-2-28.4-4.8c-9.4-2.2-22.1-5.3-39.7-8.5c-19.4-3.5-27.7-7.8-35.3-24.4
	c-0.8-1.8-1.6-3.6-2.8-5.8c-2.4-4.5-5.7-10.1-9.2-16.1c-8.1-13.8-16.4-28-20.4-39.5l-7.1-20.5l115.4-48.3
	c-0.9-4.8-2.1-10.2-3.2-15.8c-3.5-16.5-7.4-35.3-8.6-50.3l-2.2-26.4l130.9,7.3l3.7,15.8c0.5,1.3,1.1,3.4,1.3,6
	c1.9,20.4,1.6,41.1,1.4,61.1v0.2c-0.1,5.5-0.2,11.1-0.2,16.6c-0.2,21.8,0.2,37.5,0.5,48.9c0.5,18.7,0.7,27.4-2,36
	c-3.8,12.6-12.1,18.5-20.1,24.3c-2.7,1.9-5.7,4.1-9.3,6.8c-6.5,5.1-11.9,9.5-16.6,13.3C2753.6,3017.8,2743,3026.5,2724.9,3026.5
	L2724.9,3026.5z"/>
<path class="st0" d="M2805.4,2922.3c-0.3-11.5-0.7-27.4-0.5-49.4c0-5.6,0.1-11.4,0.2-16.9c0.2-19.6,0.5-39.9-1.3-59.5
	c-0.2-1.5-0.5-2.5-0.7-3l-1.3-5.5l-101.7-5.7l0.7,8.8c1.2,14,5,32.3,8.4,48.3c1.5,6.9,2.8,13.4,3.9,19.2c0.8,4.2,1.9,9.5,3.1,15.1
	c3,14.3,7,33.2,7.8,44.8l-23.5,12.7l-10.6-53.1l-88.6,37.1l2.4,6.8c3.5,10.1,11.5,23.7,19.2,36.8c3.6,6.1,7.1,12,9.5,16.8
	c1.4,2.7,2.4,4.8,3.2,6.7c4.8,10.7,8,12.8,24,15.7c18,3.3,31,6.4,40.5,8.7c11.1,2.6,18.4,4.4,24.9,4.4l0,0
	c12.6,0,20.1-6.1,38.2-20.7c4.8-3.8,10.2-8.3,16.8-13.4c3.8-3.1,7.1-5.3,9.8-7.3c7-5,12.1-8.6,14.4-16.2
	C2806.1,2947.1,2805.8,2939.3,2805.4,2922.3z"/>
<path class="st0" d="M2508.4,2762.3l20.1-1.5c1.2-0.1,2.5-0.2,3.9-0.2c13.4,0,33.4,4.8,54.6,9.8c13.4,3.2,26.1,6.2,33.7,7.1
	l18.4,2.2l1.8,18.4c1.2,11.8-3.2,36.7-12.8,84.8v0.2c-1.2,6-2.2,11.1-2.8,14.4c-2.1,11.4-4.1,22.8-6.1,34v0.2
	c-3.5,19.8-7.1,40.3-11.2,60.9l-3.5,17.4l-110.9,6.5L2508.4,2762.3z"/>
<path class="st0" d="M2625.7,2799.6l-0.6-6.1l-6.1-0.8c-8.5-1-21.6-4.1-35.4-7.4c-19.4-4.6-39.4-9.4-51-9.4c-1,0-1.9,0-2.8,0.1
	l-6.7,0.5l-13,223.3l81.8-4.8l1.2-5.8c4.1-20.4,7.7-40.9,11.2-60.6c2-11.1,4-22.7,6.1-34.1c0.6-3.3,1.7-8.6,2.9-14.7
	C2620.4,2843.7,2626.8,2810.3,2625.7,2799.6z"/>
<path class="st0" d="M2263.5,2808.8c-0.2-0.9-0.5-1.8-0.7-2.5c-1.7-6.2-4.1-15.5,1.8-25.3c6-10,15.9-12.2,21.8-13.5
	c9.4-2.2,61.4-10.8,78.1-10.8c1.2,0,2.2,0,3.1,0.1l19.1,1.3l8.6,75.5h2.5l-5.2-72.4l128.8-3.5l-1.7,249.4l-105.1,2.4l-1.6-18.7
	l-0.5,13.1l-101.7,18.5L2263.5,2808.8z"/>
<path class="st0" d="M2409.1,2776.2l5.3,73.1l-32.7-0.5l-8.7-76.3l-6.4-0.5c-0.6-0.1-1.3-0.1-2-0.1c-14.4,0-64.6,8.2-74.7,10.5
	c-4.6,1.1-9.5,2.2-12.1,6.5c-2.5,4.1-1.4,8.5-0.1,13.4c0.2,0.9,0.5,1.8,0.8,3l44,199.5l74.9-13.6l0.2-6.1c0.5-13.3-1.5-26.9-3.5-40
	c-0.8-5.8-1.7-11.4-2.3-17l30.4-5.9l6.3,72l75.8-1.8l1.5-218.6L2409.1,2776.2z"/>
<path class="st0" d="M1842.7,3032.4c-2.7-12.8-11.1-64.8-18.8-115.8c-15.1-100.1-14.1-107.7-13.7-111.8l2.2-18.1l238.9-27.8
	l-0.3,126.6l-20.4,0.3l-5.1,89.6l-62.3-4.3c0.1,1.8,0.2,3.5,0.2,5.4c0.8,21.8,1.5,40.6-1.9,52.8l-4.4,15.8l-110.4,7L1842.7,3032.4z"
	/>
<path class="st0" d="M1944.4,2871.1c0.9,0,2.1,0.1,3.5,0.2c2.4,0.2,5.7,0.3,10.1,0.3l77.6-1.1l0.2-94.1l-209.7,24.4l-0.7,6
	c-0.8,6.4,3.8,42.6,13.6,107.7c7.6,50.8,16,102.4,18.7,115l1.4,6.5l86.2-5.5l1.5-5.3c2.7-9.8,2.1-28.4,1.3-48.1
	c-0.3-8.1-0.5-16-0.5-22.4l63.5,4.4l4.6-81.1l-72.4,6.5l0.6-13.4C1944.1,2871.1,1944.3,2871.1,1944.4,2871.1z"/>
<path class="st0" d="M1631.6,3027.8l-5.6-13.8c-4.8-11.6-8.6-26-12-38.6c-1.2-4.5-2.4-8.8-3.5-12.7c-1.2-4.2-2.4-7.8-3.4-10.9
	c-6-18.4-7.8-28.4-1.6-53.6c1.8-7.6,3.8-15.4,6-23.7l0.1-0.2c6.8-26.5,13.8-53.9,18-77.7l3.8-21.4l213.1,25.7l-14.3,80.9l-0.2,0.6
	c-0.9,4-1.8,7.8-3.6,11.5c-4.5,9.3-13.3,14.8-23.4,14.8c-1,0-1.9-0.1-2.8-0.2l-4.1,18.8l20.8-0.9l14.8,109.3L1631.6,3027.8z"/>
<path class="st0" d="M1646,2792.3l-1.3,7.1c-4.4,24.3-11.4,51.9-18.2,78.7c-2.2,8.3-4.1,16.1-6,23.7c-5.5,22.4-3.8,29.7,1.3,45.1
	c1.1,3.3,2.3,7,3.5,11.4c1.2,4,2.3,8.4,3.5,13c3.2,12.2,7,26,11.4,36.8l1.8,4.6l173.9,7l-10.5-77.2l-26.9,1.2l10.3-46.3v-1
	c-0.1-3.6-0.5-5.1-1.2-7.2c0-0.1-0.1-0.2-0.1-0.2c2,0.6,3.9,1.2,5.6,1.6c1.5,0.4,2.8,0.8,3.9,1.2c3.2,1,5.5,1.7,8,1.7l0,0
	c2.5,0,7-0.8,9.6-6.1c1-2.1,1.6-4.5,2.5-8.3l0.1-0.2l11.4-64.5L1646,2792.3z M1722.4,2946.2l-0.4-4.1l24.1,3.1L1722.4,2946.2z
	 M1726.9,2877.8l1-4.6c9.4,1.6,22.4,5.1,34.6,8.5L1726.9,2877.8z"/>
<path class="st0" d="M1374.9,2813.8l12.7-8.1c7.4-4.7,22.2-8.7,75.8-20.3c6.9-1.5,12.9-2.8,15.8-3.5c1.6-0.4,3.2-0.8,4.8-1.2
	c5.4-1.5,11-2.9,17.7-2.9c8.5,0,16.4,2.5,24.4,7.6c4.3,2.8,20,11.4,35.1,19.6c27.9,15.2,41,22.5,48.3,27c8.1,4.9,12.2,8.1,15.1,13.9
	l1.8,3.6l0.5,4.1c1.7,13.9-0.8,39.7-3.8,69.4c-0.5,5.2-1,9.7-1.3,13.2c-0.2,1.5-0.2,2.9-0.4,4.2v0.2c-1.5,17.6-3.2,23.3-15.4,35
	c-1.1,1.1-2.4,2.3-3.8,3.8c-3.6,3.5-6.8,7.2-10.2,11.2c-2.8,3.2-5.8,6.5-9.1,10.1c-3.1,3.2-5.5,6-7.7,8.4
	c-7.1,7.9-12.4,13.3-20,16.7c-7.4,3.2-14.9,3.6-26.4,3.9c-5.7,0.2-12.6,0.3-22.1,0.8l-98.2,5.5L1374.9,2813.8z M1508.3,2914
	c0.5-2.9,0.9-5.9,1.4-8.8c-0.1,0-1.5-0.5-2.2-0.8L1508.3,2914z"/>
<path class="st0" d="M1611.5,2855.4l-0.2-1.3l-0.6-1.2c-1.8-3.6-4.3-5.6-57.1-34.3c-16.1-8.8-31.4-17.1-36.1-20.2
	c-5.5-3.5-10.6-5.1-16.1-5.1c-4.6,0-8.8,1.2-13.7,2.5c-1.6,0.5-3.3,0.9-5.1,1.3c-3,0.7-8.8,2-16.1,3.5c-42.4,9.2-65,14.6-70.8,18.2
	l-4.2,2.7l29.9,198.5l84.2-4.7c9.8-0.5,16.8-0.8,22.6-0.9c20.7-0.5,22.7-1.4,35.4-15.5c2.2-2.5,4.8-5.2,8-8.7c3.2-3.3,6-6.5,8.7-9.7
	c3.6-4.1,7.1-8.1,11-11.9c1.5-1.5,2.9-2.8,4.1-3.9c8.9-8.6,9.4-10.5,10.7-25.3c0.2-1.3,0.2-2.8,0.4-4.5c0.3-3.6,0.8-8.1,1.3-13.4
	C1610,2899.2,1613.2,2868.8,1611.5,2855.4z M1512.9,2941.5c-1.8,0.5-3.9,1.1-6.3,1.8c-1.7,0.5-3.4,1.3-5.1,1.9
	c-1.8,0.8-3.8,1.5-5.7,2.2l-5.8-65.5c7.6,2.4,18.1,6.3,24.9,8.8c4.3,1.6,8.2,3.1,11.5,4.3c-1.2,11.7-5.1,35-6.9,42.2
	C1519,2939.7,1518.9,2939.9,1512.9,2941.5z"/>
<path class="st0" d="M1306.8,3034.8c-8.5,0-15.4-2.5-23.4-5.4c-4.1-1.5-9.3-3.4-16-5.4l-47-14.6c-0.6-0.2-1.2-0.3-1.7-0.5h-0.1
	c-2-0.5-4.1-1.2-7.5-2.4c-0.3-0.1-0.5-0.2-0.6-0.2c-9-1.7-15.8-7.8-18.5-16.4c-2.2-4.5-4.1-11.5-7.9-26.6c-1-3.9-2-8-2.5-9.8
	c-2.7-9.3-5.5-19.8-8.3-30l-1.2-4.4c-1.3-4.8-2.5-8.8-3.5-12.1c-3.2-10.7-5.1-18.3-3.6-26.6c1.5-8.5,6.1-15,12.4-23.3
	c2.8-3.6,6.1-8.1,10.5-14.2c3.7-5.3,7.3-10.1,10.7-14.8c2.2-3.1,4.6-6.2,7-9.5l0.4-0.5c10.6-14.8,14.8-18.7,32.4-23.3h0.1
	c1.8-0.5,3.9-1,6.4-1.7c13.5-3.8,23.1-6.8,30.1-9.1c11.1-3.6,18.5-6,27-6c10.6,0,18.3,3.5,31,9.3c10.1,4.6,25.3,11.5,51.1,21.1
	l22.7,8.5l-35.7,83.3l2.5,3c4.4,5.1,9.3,13.6,19.6,31.7c4.8,8.4,10.2,17.9,13.3,22.6l9.4,14.1l-10.6,13.2
	c-6.8,8.5-17.1,13.5-26.2,18c-2.5,1.2-4.7,2.3-6.5,3.3c-5.6,3.1-10.5,5.8-15,8.4l-0.2,0.1
	C1331.5,3028.8,1320.7,3034.8,1306.8,3034.8z M1291.3,2917.5c8.8,3.5,14.3,5.3,17.7,6.4c1.8-1.5,3.9-3.3,6-5.1
	c6.1-5.2,11.4-9.7,16.2-13.3c-5.1-2.5-10.3-5.5-15.7-8.5c-3.2-1.8-6.7-3.8-9.8-5.5c-1.5,1.2-3.1,2.5-4,3.3c-3.5,2.9-7.1,6.1-11.2,9
	L1291.3,2917.5z"/>
<path class="st0" d="M1393.5,2965.8c-3.5-5.1-8.8-14.4-13.9-23.5c-8.8-15.4-14.4-25.1-18-29.4l-3.1-3.6l-4.6,1.1
	c-7.6,1.8-16.4,9.1-29.1,19.9c-4.5,3.9-8.9,7.7-12.1,9.8c-6.9-0.2-26.3-8.1-34.7-11.4c-0.6-0.2-1.2-0.5-1.7-0.7l-1.9-32.3
	c6.1-3.5,11.9-8.4,17.1-12.8c4-3.4,10-8.5,12.5-9.1c4.8,1.6,12,5.7,18.8,9.6c9.8,5.6,19,10.8,26.4,12.2l6.1,1.2l30.7-71.5l-7.5-2.8
	c-26.4-9.8-41.9-16.9-52.1-21.6c-11.6-5.3-17.4-7.9-24.7-7.9c-6.1,0-11.8,1.8-22.3,5.2c-7.1,2.3-16.9,5.5-30.7,9.3
	c-2.6,0.7-4.8,1.3-6.7,1.8c-13.4,3.5-14.8,5-23.7,17.4l-0.4,0.5c-2.4,3.4-4.8,6.6-7.1,9.7c-3.4,4.6-6.9,9.4-10.5,14.5
	c-4.5,6.4-8,11.1-10.8,14.8c-11.4,14.9-11.8,17.3-6.2,36.2c1,3.3,2.2,7.5,3.5,12.5l1.2,4.3c2.7,10.1,5.5,20.6,8.2,29.7
	c0.6,2.1,1.6,6.1,2.7,10.4c3.1,12.1,5.1,20.3,6.8,23.6c0.6,1.2,0.7,1.7,0.8,2c1,3.5,3.4,5.6,6.9,6.1c0.4,0.1,1.1,0.2,3.1,0.9
	c2.5,0.9,4.2,1.4,6,1.9c0.7,0.2,1.4,0.4,2.2,0.6l47,14.6c7.1,2.2,12.4,4.1,16.8,5.6c7.2,2.6,12.4,4.5,18.3,4.5l0,0
	c9.8,0,18.9-5.1,43.1-18.6c4.5-2.5,9.5-5.3,15.1-8.5c2.1-1.2,4.5-2.4,7.1-3.6c8-3.9,16.4-8,21-13.8l3.5-4.4L1393.5,2965.8z"/>
<path class="st0" d="M974.2,3023.2c-2.7-4.7-5.1-9.1-18.4-96.4c-6.5-43.2-12.9-88.3-14.1-99.8l-2.5-22.4l22.4-2.9
	c28.6-3.8,63.8-11.3,94.7-18c6.9-1.5,13.5-2.9,19.9-4.2c5.4-1.2,9.8-1.7,13.9-1.7c15.7,0,25.4,7.5,37.9,16.9
	c3.5,2.7,7.5,5.8,12.4,9.3c1.9,1.4,5.2,3.7,9.1,6.3l0.1,0.1c21.4,14.7,31.1,21.7,36,27.7l9,10.8l-23,54c0.8,1,1.7,2,2.5,3
	c1.1,1.3,2.2,2.5,3,3.5c0.9,1.1,1.8,2.2,2.8,3.2c4.3,5.1,8.8,10.3,12.6,16.1l6.7,10l-4.3,11.2c-2.2,5.7-13.4,23.6-22.4,37.7
	c-13.1,20.5-21.4,32.6-24.7,35.8l-6.4,6.3l-160.4,5.8L974.2,3023.2z"/>
<path class="st0" d="M1179.8,2937.2c-3.4-5.1-7.6-9.9-11.6-14.7c-0.9-1.1-1.9-2.2-2.8-3.3c-0.8-1-1.8-2.2-2.9-3.4
	c-2.7-3.1-6-7.1-8.6-10.4l23-54l-3-3.6c-4-4.8-16.7-13.7-32.9-24.7c-4-2.7-7.5-5.1-9.5-6.6c-5.1-3.7-9.1-6.8-12.8-9.5
	c-11.7-8.8-18.1-13.8-28.6-13.8c-3,0-6.5,0.4-10.8,1.3c-6.4,1.4-13.1,2.8-19.8,4.2c-31.3,6.8-66.8,14.4-96,18.2l-7.5,1l0.8,7.5
	c1.2,11.4,7.5,56.2,14.1,99.2c12.8,84.4,15.4,88.9,16.6,91l2.3,4l145.2-5.2l2.2-2.1c4.9-4.8,40.7-60.9,43.5-68.1l1.5-3.8
	L1179.8,2937.2z M1053.4,2866l29.4,8.4l-1.6,9.4c-6.1,2-18.4,4.8-26.7,5.8L1053.4,2866z M1085.3,2942.2l-1.5,12.4l-23.4,2.8
	l-1.2-15.9L1085.3,2942.2z"/>
<path class="st0" d="M899,3034.8c-4.3,0-7.5-0.3-10.3-0.9l-15.1-3.4l-7.1-40.9l-16.2,0.9c-1.5,6.5-3.2,14.8-3,17.8l3.4,25l-25.3,1.1
	c-0.8,0-1.8,0.1-2.6,0.1c-13.4,0-30.7-4.3-47.3-8.4c-10.8-2.7-21.1-5.2-28.3-6.1l-21.8-2.7l1.7-22c3.1-40,54.1-188.6,54.6-190.2
	c0.7-2.1,1.3-3.8,1.8-5.7c0.6-1.8,1.2-3.7,1.9-5.9l4.6-13.4l14-2c1.6-0.2,3.4-0.3,5.5-0.3c17.2,0,101.8,10.1,115,14.4l11.5,3.8
	l68.4,228.1l-27.4,3.2c-2.3,0.2-5.5,0.6-9.3,1.2l-0.4,0.1C940.6,3031.6,913.3,3034.8,899,3034.8z"/>
<path class="st0" d="M923.7,2808.1l-3.8-1.2c-10.7-3.5-93.1-13.7-110.3-13.7c-1.4,0-2.5,0.1-3.4,0.2l-4.7,0.7l-1.5,4.5
	c-0.7,2.1-1.3,3.8-1.8,5.6c-0.6,2-1.2,3.8-2,6.1c-10.7,31-51.3,153.2-53.8,186.3l-0.5,7.3l7.3,0.9c8.1,1,18.8,3.7,30.1,6.5
	c15.8,3.9,32,8,43.6,8c0.7,0,1.3,0,2-0.1l8.5-0.4l-1.2-8.4c-0.8-5.8,2.3-19,4.5-28.7c0.5-2,0.9-3.9,1.3-5.8l41.4-2.4l7.7,44.3l5,1.2
	c1.7,0.4,3.9,0.5,7,0.5c14.5,0,47.1-4,66.5-6.4c4.1-0.5,7.4-0.9,9.8-1.2l9.1-1.1L923.7,2808.1z M852.4,2903.6
	c0.8-6.9,4-19.1,6.6-27.2l7.3,29L852.4,2903.6z"/>
<path class="st0" d="M2171,3037.4c-12.1,0-21.8-3.9-36.6-9.9c-11.4-4.6-27.1-11-52-19.1c-1.2-0.4-2.3-0.7-3.5-1.1
	c-9.3-2.6-19.7-6.8-26-24.1c-6.1-17.2-12.3-38.8-18.3-59.7c-3.7-12.8-7.5-26.1-11.1-37.8c-7.1-22.8-1.3-32.6,10.4-49.2
	c3.3-4.8,7.5-10.6,12.7-18.7c6.4-10,10.8-17.6,14.4-23.7c6.7-11.4,11.2-18.8,18.3-24.7c7.5-6.3,16.4-9.5,29.3-12.8
	c3.9-1,9.4-2.7,15.8-4.7c20-6.1,44.7-13.8,62.5-13.8c5.5,0,10.2,0.7,14.4,2.1l3.2,1.1c54.5,17.5,69.6,23.6,76.4,27.7l14.1,8.6
	l-3.6,16.1c-1.2,5.4-10.5,27.6-18.7,46.2l35.2-2.8l5.1,145.8l-9.2,7.2c-7,5.5-22,11.7-66.9,27.6c-4.6,1.6-8.6,3.1-11.1,3.9
	c-4.1,1.5-7.8,2.9-11.2,4.1C2194.4,3033.3,2183.3,3037.4,2171,3037.4L2171,3037.4z"/>
<path class="st0" d="M2293.1,2853.6l-45.4,3.6c7.3-13.8,27.5-61.3,28.7-66.9l1.2-5.4l-4.7-2.8c-6.6-4-28.4-11.9-73.1-26.2l-3.2-1.1
	c-2.8-0.9-5.9-1.3-9.8-1.3c-15.5,0-39.1,7.3-58,13.1c-6.5,2-12.2,3.8-16.4,4.8c-23.4,6.1-26,9.7-38.1,30.4
	c-3.6,6.2-8.1,14-14.8,24.2c-5.4,8.5-9.6,14.4-13.1,19.3c-10.6,15.1-13.2,19.7-8.2,35.7c3.7,11.8,7.5,25.2,11.2,38.2
	c5.9,20.7,12,42,18,58.8c3.8,10.5,8.4,12.4,15.6,14.4c1.3,0.4,2.6,0.7,4.1,1.2c25.4,8.3,41.3,14.8,53,19.5
	c14.1,5.7,21.7,8.8,30.8,8.8l0,0c9.6,0,19.2-3.6,38.3-10.7c3.4-1.3,7.1-2.7,11.3-4.1c2.5-0.9,6.5-2.4,11.2-4
	c35.1-12.4,56.6-20.6,62.5-25.2l3.1-2.4L2293.1,2853.6z M2204.1,2929.8c-8.3,3.2-17.3,6.2-20.8,6.5c-0.5-0.2-1.2-0.5-2-0.8
	L2204.1,2929.8z M2165.3,2927.6c-5.7-2.9-11.4-6-15.3-8.1c-0.8-13.4-0.2-36,0.5-48.7c0.3-5.4,5.8-9.9,14.9-17
	c2.3-1.8,4.6-3.6,7.1-5.6c5.5-4.5,8.7-6.4,10.8-6.4c2.3,0,6.1,1.9,11.4,4.5c6.6,3.3,15.8,7.9,29.7,12.8l-62.4,4.9L2165.3,2927.6z"/>
<g>
	<path class="st0" d="M3823.9,3011.4c-7.9,0-13.9-2.5-20.9-5.5c-2.3-1-4.8-2.1-7.9-3.3l-57.4-22.4c-9.5-3.8-18.4-7.4-24.9-16.4
		c-5.6-7.8-6.8-16-8.8-28.3c-1.1-6.8-2.5-16.1-5.1-28.8c-2.1-9.8-3.9-17.6-5.5-23.9c-3.9-16.1-6.1-26.7-2.9-37.6
		c3.2-10.9,10.6-18.7,22.5-30.7l0.1-0.1c1.2-1.2,2.4-2.4,3.7-3.7c13.1-13.1,21.3-23.1,27.3-30.3c12.1-14.5,21.7-26,44.2-26
		c8.2,0,17.7,1.5,32.1,3.8c10.7,1.7,23.9,3.8,41.3,6.1c24.6,3.2,34.8,14.5,50.2,31.7c2.8,3.2,6.1,6.8,9.8,10.8
		c2.6,2.8,5.4,5.5,8.1,7.9c9.6,9.1,21.7,20.4,21.1,39c-0.5,16.4-3.2,34.4-5.8,51.8c-2.3,15.5-4.8,31.5-5.5,45.4l-0.7,13.8l-12.5,5.9
		c-16.4,7.8-33.1,14.8-49.3,21.6c-8.2,3.5-16.8,7.1-24.8,10.6l-2.7,1.2C3839,3008.6,3832.5,3011.4,3823.9,3011.4z M3813.4,2891.9
		c3.2,1.2,6.7,2.5,9.5,3.5c2.1-2.2,4.7-4.8,8-7.7c0.8-0.8,1.7-1.5,2.5-2.2l-6.4-12.5c-5,1.5-10.1,2.9-14.4,4.4L3813.4,2891.9z"/>
	<path class="st0" d="M3823.9,2996c-4.8,0-8.8-1.7-14.9-4.3c-2.3-1-5-2.1-8.3-3.4l-57.3-22.4c-8.3-3.3-14.2-5.7-18.1-11.1
		c-3.5-4.9-4.4-10.9-6.1-21.7c-1.1-7-2.5-16.5-5.3-29.6c-2.1-10.1-4-18.1-5.6-24.4c-7.1-29.3-6.4-31.8,15.5-53.8
		c1.2-1.2,2.5-2.5,3.8-3.8c13.5-13.6,22-23.8,28.2-31.3c11.4-13.7,17.1-20.5,32.4-20.5c7,0,16.1,1.5,29.7,3.6
		c10.8,1.7,24.1,3.8,41.7,6.1c19,2.5,26.2,10.5,40.7,26.7c2.9,3.2,6.2,6.9,10,11c2.9,3.2,5.9,6,8.8,8.7c8.5,8.1,16.6,15.7,16.2,27.3
		c-0.5,15.5-3.1,33-5.7,49.9c-2.4,15.8-4.8,32.3-5.6,47l-0.2,4.6l-4.1,2c-16.1,7.6-32.7,14.6-48.6,21.3c-8.2,3.5-16.8,7.1-25,10.7
		l-2.7,1.2C3834.1,2993.9,3829.3,2996,3823.9,2996L3823.9,2996z M3798.6,2902.7c3.3,1.2,6.2,2.4,8.9,3.4c10.1,3.8,16.7,6.4,19.4,6.4
		c0.8,0,1.9-1.1,5.4-4.6c2.2-2.3,5-5.2,8.9-8.7c1.5-1.3,2.8-2.5,4.2-3.7c2.5-2.2,4.8-4.2,7-6.5l-17.3-34.1
		c-12.1,3.1-29.6,8.1-38.5,12L3798.6,2902.7z"/>
	<path class="st0" d="M3823.9,3003.7c-6.4,0-11.2-2.1-17.9-4.9c-2.3-1-4.9-2.1-8.1-3.4l-57.4-22.4c-9.1-3.6-16.3-6.5-21.4-13.8
		c-4.5-6.4-5.6-13.4-7.5-25.1c-1.1-6.9-2.5-16.3-5.2-29.2c-2.1-10-4-17.8-5.5-24.1c-3.6-14.9-5.8-23.9-3-33.7
		c2.8-9.6,9.1-15.9,20.5-27.4c1.2-1.2,2.5-2.5,3.8-3.8c13.3-13.4,21.7-23.4,27.7-30.7c11.7-14,19.4-23.3,38.3-23.3
		c7.6,0,16.9,1.5,31,3.7c10.7,1.7,24,3.8,41.5,6.1c21.7,2.8,30.7,12.8,45.5,29.1c2.9,3.2,6.1,6.8,9.9,10.9c2.8,3,5.6,5.7,8.5,8.3
		c9,8.5,19.1,18,18.7,33.1c-0.5,16-3.2,33.7-5.8,50.9c-2.4,15.7-4.8,31.9-5.5,46.3l-0.5,9.2l-8.3,3.9c-16.3,7.7-32.9,14.7-48.9,21.4
		c-8.2,3.5-16.8,7.1-24.9,10.6l-2.7,1.2C3836.5,3001.3,3830.9,3003.7,3823.9,3003.7L3823.9,3003.7z M3810.3,2898.9
		c5.9,2.2,11.5,4.4,14.8,5.4c0.5-0.5,1.2-1.2,1.8-1.8c2.2-2.3,5.2-5.4,9.2-9c1.5-1.4,2.9-2.6,4.3-3.8c0.9-0.8,1.8-1.5,2.5-2.2
		l-11.9-23.5c-9.6,2.6-19.6,5.6-26.5,8.1l1.5,25.3C3807.5,2897.8,3808.9,2898.4,3810.3,2898.9z"/>
	<path class="st0" d="M3904.9,2822.3c-22.4-24.1-26.7-32.7-46.1-35.3c-105-13.7-64.5-21.7-125.6,39.9c-29.2,29.4-23.1,20.1-11.7,75
		c10.5,50.3,2.7,48,24.7,56.8l57.4,22.4c22.1,8.8,17.2,10.1,39.7,0.3c23.9-10.4,49-20.3,73.4-31.9c1.5-31.1,10.4-67.5,11.2-96.8
		C3928.3,2841.6,3916.5,2834.7,3904.9,2822.3z M3846.3,2904.8c-21.3,19.3-9.4,20.3-55.1,3.3l-2.6-45.9c8.9-5.5,39.3-13.7,50.6-16.3
		l22.3,44.1C3857,2896.1,3852,2899.7,3846.3,2904.8z"/>
</g>
<g>
	<path class="st1" d="M3281.7,686.7l-103-145.7c-2.4-3.4-6.2-5.6-10.2-6.1l-102.1-12.4l28.2-11.9c3.1-1.3,5.2-4.4,5.2-7.7v-52.3
		c0-3.5-1.6-6.9-4.2-9.2l-35.6-30.4c1.1-0.7,1.9-1.8,2.1-3.2l21.1-127.3c0.6-3.7,0.9-7.4,0.9-11.2v-30.5c0-3.5-1.8-6.7-4.8-8.4
		l-114.4-67.4c-3.1-1.8-6.7-2.6-10.4-2l-169.8,26c-3.2,0.5-5.6,3.2-5.6,6.4v10.8L2605.3,174c-3.2-0.5-6.2,1.3-7.1,4.4l-10.7,37.6
		l-82.5-44.5c-3.2-1.7-6.8-2.3-10.4-1.7l-168.3,31c-3.2,0.6-5.5,3.4-5.5,6.7V238c0,0.6,0.1,1.1,0.1,1.7l-103.1-13.7V202
		c0-3.2-2.4-5.8-5.6-6.2l-152.5-14.2c-3.1-0.2-5.7,2-5.9,5.1l-0.7,12.6l-63.3-48.4c-2.8-2.2-6.4-3.2-10-2.9l-130.3,12.4
		c-3.5,0.3-6.7,2.2-8.7,5.2L1770.7,270c-2,3-3.1,6.6-3.1,10.2v49.2c0,3.5,1.8,6.7,4.7,8.5l22.2,13.5l-35.1,46.8
		c-2.2,2.9-3.3,6.4-3.3,10.1v48.4c0,3.6,1.7,6.7,4.2,9.2l33.1,28.2l-92.4-12.2c-3.8-0.5-7.5,1.6-9,5.2l-154.2,360.7
		c-1.7,4-2.6,8.2-2.6,12.5v42.5c0,3.9,2.3,7.5,6,9.1l177.9,75.9c3.2,1.3,6.8-0.3,7.9-3.7l48.5-158.2l42.6,76.6
		c1.5,2.7,5.3,3.1,7.2,0.7l55.5-68.2l9.5,158.7c0.2,3.4,3.4,5.9,6.7,5.2l152.1-31.5l104.8,19.8c3.5,0.7,6.9-1.7,7.5-5.2l13.2-78
		l54.8-8.2l17.6,84.6c0.7,3.5,4.2,5.8,7.7,5.2l120-22.7l1.7,15.2c0.4,3.6,3.6,6.2,7.2,5.9l144-13c3.7-0.3,6.5-3.4,6.5-7.1l-0.1-41.7
		l41.5,63.3c2.1,3.2,6.1,4.3,9.5,2.7l105.6-47.3l-0.7,37.7c-0.1,3.5,2.9,6.3,6.3,6.1l139.6-9.6c3.8-0.2,7-3.1,7.7-6.8l17.9-101
		l24,69c1.3,3.8,4.4,6.9,8.3,8.2l167.5,54.7c4,1.3,8.3,1.1,12.1-0.7l159.1-72.6c3.7-1.7,6.5-5,7.5-9l43.7-173
		c1.1-4.2,1.6-8.5,1.6-12.8v-32.5C3285.4,694.3,3284.2,690.1,3281.7,686.7"/>
	<path class="st2" d="M3066.8,449.3l-77.1-65.7l45.6-28.5c2.4-1.5,4.1-4,4.5-6.8l16.2-98c0.4-2.7-0.8-5.3-3.2-6.7l-94-55.4
		c-2.5-1.5-5.4-2-8.2-1.6L2811,208.2c-0.8,0.2-1.6,0.6-2.2,1.1l17.4,3c3.1,0.5,5.1,3.4,4.6,6.5l-14.4,85.7l18.7,182.8
		c0.2,2.5,2.4,4.2,4.9,4.1l68-6c2.5-0.2,4.4-2.3,4.3-4.8l-2.7-88.1l3.3-0.7l62.3,95.8c1.4,2.2,4.2,3,6.6,2l84.1-35.6
		C3067.9,453.2,3068.3,450.7,3066.8,449.3z M2961.6,340.8l-53.3,8.6l-2.7-92.9l65.3,23.1L2961.6,340.8z M2345,272.5l-25.1,149.2
		c-0.5,2.9-1.7,5.6-3.7,7.7l-45.4,51.8c-1.9,2.1-4.6,3.3-7.4,3.2l-129-3.3c-2.9-0.1-5.7-1.2-7.7-3.1l-58.8-52.9
		c-2.1-1.9-3.2-4.7-3.1-7.5l0.2-3.5l17-38.5c1.4-3.3,1.7-7.1,0.8-10.6l-1-4.1c-0.8-3.5-3-6.6-6.1-8.5l-6.7-4.4l4.7-75.3l17.9-22.6
		c2.2-2.8,3.2-6.4,2.7-10l-0.7-5.1c-0.4-3.5-2.2-6.7-5.1-9l-11.4-8.7l0.2-4.7c0.2-2.5,2.3-4.2,4.7-4.1l102.5,9.6
		c2.4,0.2,4.2,2.4,3.7,4.8l-28.6,176.6l80.9-5.2l-6.2-136.8c-0.1-2.3,1.9-4.2,4.2-3.9l102.5,13.6
		C2343.8,267.8,2345.5,270,2345,272.5z M2605.5,765.5l65-38c2.9-1.7,4.9-4.5,5.5-7.7l22.6-117.9c0.6-3.1-0.8-6.2-3.5-7.7
		l-131.9-77.1c-2.9-1.7-6.3-2.3-9.7-1.8l-186.4,30.2c-2.9,0.5-4.9,3.1-4.5,6l25.9,223.1l45.1,129.4l65.5-5.9c2.9-0.2,5.1-2.7,5-5.7
		L2500,777l4.3-0.9l83.5,127.4c1.7,2.5,4.9,3.4,7.6,2.2l111.6-50c2.2-1,2.6-3.9,0.7-5.5L2605.5,765.5z M2566,704.6l-68.2,15.9
		l-3.9-109.8l80.8,21.8L2566,704.6z"/>
	<path class="st3" d="M2802.4,236.9l-11.2,67.1c-0.2,1.7-2,2.7-3.7,2.2l-93.1-28.2l-12.7,46.7l84,1.2c1.7,0,3.1,1.6,2.8,3.2
		l-7.1,54.3c-0.2,1.7-1.9,3-3.7,2.7l-81.6-12.3l7.2,49.6l101-14.9c1.7-0.2,3.5,0.9,3.7,2.7l10.9,71.8c0.2,1.7-1.1,3.2-2.7,3.1
		l-203.3-7.2c-1.9-0.1-3.5-1.4-3.7-3.3l-13.1-80.6l27.3-26.1c2.6-2.5,4.3-5.8,4.8-9.4l17.3-117.5c0.5-3.3-1.2-6.7-4.2-8.2l-10.8-5.8
		l6.7-23.6c0.5-1.8,2.3-2.9,4.1-2.6l178.3,31.1C2801.6,233.4,2802.7,235.1,2802.4,236.9z M3252.8,703l-37.5,148.6
		c-0.8,3.2-3.1,5.8-6,7.2l-138.1,63c-3.1,1.3-6.5,1.6-9.7,0.5L2916.4,875c-3.2-1-5.6-3.4-6.7-6.5l-36.3-104.6l21.6-121.8l76.7-96.9
		c2-2.6,5.2-3.8,8.4-3.5l173.7,21.1c3.3,0.4,6.3,2.2,8.2,4.9l89.1,125.9C3253,696.4,3253.6,699.9,3252.8,703z M3118,762.9l-9.7-77.6
		l-77.7-20.9l-41.9,72l58.3,61.7L3118,762.9z M2393.3,878.5c0.9,2.6-0.7,5.4-3.4,5.9L2277,905.7c-2.8,0.6-5.6-1.2-6.2-4.2
		l-17.6-84.7l-103.6,15.6l-11.9,70.7c-0.5,2.8-3.2,4.7-6,4.2l-33-6.2l-38-187.9l51-176.2c0.8-2.9,3.7-4.7,6.7-4.5l154.8,15.9
		c3.2,0.3,5.8,2.5,6.9,5.5L2393.3,878.5z M2237.8,741.6l-20.8-99.9l-34.6-2.7l-16.9,100L2237.8,741.6z"/>
	<path class="st4" d="M2064.3,244.7l-38.7,49c-1.5,2-4.4,2.4-6.4,1l-79.3-54.4l-23,37.7l136.5,89.9c2.2,1.4,3,4.2,1.9,6.6l-45,102
		c-1.1,2.5-3.6,4.1-6.2,4.2l-131.2,2.3c-2.9,0.1-5.7-0.9-7.9-2.8l-79.1-67.3c-1.9-1.7-2.2-4.5-0.7-6.5l44.9-59.8
		c1.4-1.9,4.2-2.2,6.1-0.7l76.8,64.7l29.5-40.1l-144.2-87.8c-2.1-1.2-2.7-4-1.3-6.1l59.1-88.1c1.6-2.3,4.1-3.8,6.9-4.2l110.9-10.6
		c2.8-0.2,5.7,0.6,8,2.3l81.7,62.6C2065.5,239.9,2065.8,242.7,2064.3,244.7z M2874.5,557.7L2741.8,526c-2.7-0.7-5.2,1.2-5.2,4
		l-11.3,296.6l16.3,13.6c3.1,2.6,4.7,6.7,4.2,10.6l-2.2,15.2c-0.6,4-3.2,7.5-6.8,9.1l-13.7,6.1l-0.8,21.6c-0.1,2.8,2.2,5,5,4.8
		l86.2-5.9c3.1-0.2,5.6-2.5,6.2-5.5l58.9-332.1C2879.2,561.2,2877.3,558.4,2874.5,557.7z"/>
	<path class="st5" d="M2595.2,248.2l-94.7-51.1c-2.6-1.3-5.5-1.8-8.3-1.3l-138.8,25.6c-2.5,0.5-4.2,2.7-3.8,5.2l2,17l17.6,2.3
		c3,0.4,5.1,3.2,4.6,6.2l-12.3,73.4l19.3,159.6c0.2,2.5,2.5,4.2,5,4l69.7-7c2.5-0.2,4.3-2.4,4.2-4.9l-4-65.4l66.6-3.7
		c2.9-0.2,5.7-1.3,7.7-3.3l50.9-48.7c2.1-2,3.5-4.7,3.9-7.5l13.8-93.9C2598.8,252.1,2597.6,249.5,2595.2,248.2z M2504.9,342.8
		l-52.9,9.2l-5.5-88.9l67.4,23.2L2504.9,342.8z M2065.1,883.2c0.6,2.8-1.2,5.6-4.1,6.2l-137,28.3c-2.7,0.6-5.2-1.4-5.4-4.2
		l-12.1-201.7l-76.7,94.2c-1.6,1.9-4.6,1.7-5.8-0.5l-55.8-100.3l-59.6,194.4c-0.8,2.7-3.7,4-6.3,2.9l-126.4-53.9
		c-2.7-1.2-3.8-4.2-2.7-6.8l138.3-323.8c1.2-2.8,4.2-4.5,7.2-4.1l78.6,10.5c3.2,0.4,5.8,2.6,6.8,5.7l38.7,115.4l56.3-109
		c1.4-2.7,4.5-4.3,7.6-3.9l84.9,11.5c3.1,0.4,5.6,2.7,6.2,5.8L2065.1,883.2z"/>
</g>
<path class="st6" d="M3946.4,2023.1c-14.9-1.7-86,19.3-107.6,22.8c6.3-10.5,17.3-16.5,26.3-25.1l78.1-73.1l-26.2-82.9l-223,9.1
	l2.2,102.5l124.6-21.4c-3.7,8.2-93.9,100.4-108.2,116.1l10.1,63.5l225.7-15.8L3946.4,2023.1z"/>
<path class="st7" d="M3628.4,1885.3c-6.8-3.9-38.2-23-46.5-25c-14.2,13.3-58.6,90.7-70,98.2l-27.5-88.6c-3-10.3-4.9-20.7-11.3-28.8
	l-116.6,36.7c1.8,10.8,78.2,120.6,93.1,143c7.1,10.8,14.3,16.2,11.1,33.5c-2.9,15.8-16.4,64.9-14.7,74.6l112.1,5.7l-6.7-91.7
	c9.5-7.9,22.6-22.7,31.9-32.5c9.4-10,20-20.8,31.1-31.6c11.8-11.5,57.8-57.8,62.4-66.6C3663.2,1906.7,3641.3,1892.7,3628.4,1885.3z"
	/>
<path class="st8" d="M3269.7,2008.5c3.8-8,30.2-34.4,38.6-44c8.8-10,32.8-33.3,36.9-43.7c-15.1-12.7-30.4-20.4-46.1-32
	c-13.6-10-33-24.7-46.9-31.1c-13,11.6-44.2,70.6-57.7,82.8c-18.9-14.3-52.3-67.4-70.1-77.4c-6.5,3.7-84.8,78.5-88,85.6
	c16.7,10.5,32.8,23.5,49.7,35.4c13.1,9.2,42.2,27.2,48.8,36.8l-56.1,64.7c-6.9,8-14.9,13.1-17.7,23c7.5,7,15.3,11.9,22.9,18
	c6.3,5,14,11.1,21.1,16.4c14.8,10.8,30.6,24.6,44.4,32.7c7.3-4.9,49.5-71.1,58.2-83.7c7.7,4.4,28.6,26.3,37,34.3
	c7.9,7.4,27.6,30.6,37.8,34.6c12.3-14.2,68.8-74,74.2-84.9L3269.7,2008.5z"/>
<path class="st9" d="M2923.2,1938.1l-32.2,118.6l-38.7-59.7c-15.8,7.3-34.7,41.5-50.4,50.9l-9.4-149.8l-121.7,16.8
	c1.5,20.9,35,182.5,43.4,227.2c2.1,11.4,0.2,11.2,9.4,13.7c8.4,2.2,77.7,9.2,86.5,8.1l32.6-54c5.6,15.2,18.7,52.6,25.3,62.7
	l86.8-4.1c4.5-11.3,61.9-185.9,64.4-200.8L2923.2,1938.1z"/>
<path class="st6" d="M2535.1,1901.5c-2.7,21.1-19.6,134.1-26,144.6c-7.4-22.2-52.7-159.3-59.1-166.7
	c-34.7,18.2-74.6,38.5-109.1,56.8c3.1,11.3,49.1,92.8,59.1,110.3c14,24.6,47.8,90.5,59.5,107.4l110.2-7.2
	c10.6-37.2,26.5-80.4,37.6-113.2c6.7-19.8,34.5-99.5,36.2-113.3L2535.1,1901.5z"/>
<path class="st9" d="M2333.9,1957.1l-114.8-16.2l-8.1,138.3l-62.1,8.7l19.6-175.7l-121.9-14.1c-6.4,1-2.8-0.1-6.5,2.3
	c-3.4,11.5-6.5,101.7-7,120.9c-3.6,119.2-22,78.8,44.6,136.6c20.1,17.5,16.4,13.3,49.9,13.6c39.8,0.4,87,2.5,126,0
	c13.9-13.8,24.1-26.6,36.9-39.7c19.2-19.4,18.2-16.4,23.9-49.5C2317.7,2063.1,2336.4,1969.3,2333.9,1957.1z"/>
<path class="st7" d="M1997.5,1980.5c1.1-10.4-1.4-74.7-4.7-79.9l-3.2-1.5c-7.4-2.1-19.2,0.1-29.5,0.3c-11.9,0.2-23.8,0.7-35.7,1
	c-23.1,0.7-45,2.3-68.9,3.3c-42.4,1.7-95.9,1.6-136.8,6.8l9.7,107.1c21.4,5.1,70.7-11,95.2-8.1l2.6,162.1
	c8.5,2.8,94.2-1.2,108.7-2.8c2.2-23.3-28.2-152.5-25.9-175.1L1997.5,1980.5z"/>
<path class="st8" d="M1562.9,1992.3l16.5-25c18.7,7.4,55.4,40.2,72.2,43.6c7.3-18.8,30.4-50.6,34-67.8c-9.5-8.8-50.7-29.1-64.6-37.1
	c-17.6-10.2-14.8-8.6-38.4-4.9l-86.7,12.2c-11.9,3.1-15.8,17-22,27.7c-8.7,14.9-32.1,51-36.2,63.5c13.6,5.4,130.4,64.3,135.2,69
	c-4.4,8.8-9.4,15-15.8,23.9c-19.7-2.8-61.9-37.8-83.2-42.2c-5.5,5.9-35,52.1-37,62.1c20.2,7.7,67.4,54.7,86.3,55.4
	c14.9,0.5,119.5-9.1,128.9-12.9c4.9-3.7,41.3-82.7,50.1-97.5C1690.8,2050,1579.1,2006.9,1562.9,1992.3z"/>
<path class="st6" d="M1410.5,2113.1l-50.9-44.7c2.2-2.4,0.1-0.3,3.6-3.4l8.7-6.6c19.5-14.1,25.8-13.9,28.8-29.3
	c4.4-21.9,10-47.3,13.3-66.3c-5.5-7.8-35.4-27.1-45.2-34.3c-10.2-7.5-37.9-30.6-49-30.3l-142.3,18.1l20.7,243.3l78.9-3.9l0.3-71.2
	c4.4,3.7,58.5,81.4,61.6,88.2l87.8-43.9C1423.8,2123.1,1416.9,2118.5,1410.5,2113.1z M1320,2024.2l-42.7,9.5l-3.5-67.4
	c13.7,1.8,43.4,9.8,53,15.9L1320,2024.2z"/>
<path class="st9" d="M1124.4,2094.9c6.8-12.2,21.3-10.8,22.7-30.5c0.9-12.7,7.3-89.7,5.5-95.4c-2-6.3-43.8-39.3-53.6-48.7
	c-19.4-18.4-17.7-17.2-33.1-18.2c-24-1.5-76.1-5.7-98.6-3.2l-52,68.4c-5,6.7-8.6,11.1-13.4,17.2c-5.5,7-7.1,9.5-3.8,20.3l25.2,93.3
	c2.9,10.8,0.8,15.4,11.1,19.5l110.5,36.1c6-4.8,20.1-19.6,26.9-22.1c9.4,13.1,22.9,27.7,31.4,41c7.3-2.8,60.7-42.3,64.8-49.2
	C1155.9,2113,1137.1,2105.3,1124.4,2094.9z M1043,2070.5c-8.2-0.5-46.9-15.4-52.1-19.3l-3.1-52.3c6.6-4.7,48.9-23.2,57.5-24.6
	c5.2,8.8,11.5,17.2,18.2,26.3c5.9,8,14.9,18.6,17.5,26.7C1069.5,2042.4,1054,2055.5,1043,2070.5z"/>
<path class="st7" d="M829.7,1911.1c-11.2-8-38.7-32.2-51.2-31.6c-27.6,1.3-109,16.5-147.8,20.2l19.7,254c15.1,1.2,66.6-0.9,84.3-5.7
	l0.7-69.9c19.7-1.4,50.9,5.2,67.3,2.6c9.7-1.5,31.1-21.4,41.9-28.9c19.3-13.5,15.9-20.7,22-48c4-17.8,9.8-36,12.1-56.9
	C867.2,1935.2,843.1,1920.7,829.7,1911.1z M778.3,2017.7l-43.2,5.6l-2.4-70.3l55.7,15.5L778.3,2017.7z"/>
<path class="st6" d="M3991.9,1547.5l8.1,120.9c-7.4-7.4-15.6-20.1-22.1-29.6l-64.5-91.3l-92.2,28.2l37.8,237.9l83-11.3l-5.4-97.3
	c18.2,17.6,63.8,83.4,79.8,96.3l75.1-21.7l0.4-240.4L3991.9,1547.5z"/>
<path class="st9" d="M3806.2,1708.6c-5.2-40.5-11.9-81.8-16-122.3l-64.2-8.4c-7.5,12.7-34.8,52.2-44.7,61.8l-19.9-71.6l-68.7-5.7
	l-46.4,106.9c-7.5,18.1-43.2,97.5-45.4,109.1l94,41.6l37.9-120c13.7,14.4,23.6,42.4,37.5,56.8c12.6-8.1,39.1-36.1,50.8-41.3
	l0.6,122.6l99.3-5.7C3823,1813.8,3809.3,1732.4,3806.2,1708.6z"/>
<path class="st7" d="M3375.3,1713.4l-2.9-185.4c-14.6-1.1-103.6,10.4-115.2,15.8l39.4,267.6c19.2,3.9,168.3-12.9,201.2-16.6
	l3.1-114.7C3475.4,1682.7,3392.2,1717.5,3375.3,1713.4z"/>
<path class="st8" d="M3161.9,1668.4l75.3-85.2c-8.4-8-73.1-53.4-83.3-57.4c-15.3,13.5-53.7,94.7-65,99c-0.9-15.1-2.5-29-3.9-43.9
	l-6-39.5c-0.1-1-0.5-1.3-0.8-1.9c-9.2,0.5-93.5,7.8-96,9.2c-5.4,3.1-3.3,0.4-2.5,8.8l23.4,167.1c3.4,25.1,7,66,12.6,89.1l86.6-6.9
	l-0.4-79c7.6,6.4,13,12.4,19.4,20.3c7.2,8.8,10.8,11.9,19.3,20.9c8.5,9.2,30.8,36.9,39.3,41.7c12.2-5.7,28.6-22.5,39.8-31.7
	c13.5-11.1,24.4-20.2,37.4-30.7C3244.5,1731.4,3181.5,1689.5,3161.9,1668.4z"/>
<path class="st6" d="M2937.6,1656.8c0.2-33.5,1.6-66.3-1.4-98.5c-0.1-0.9-0.4-1.1-0.7-2.3l-113.5-6.3c2.1,25.1,11,61.2,15.8,86.9
	c4.1,21.9,14.9,65.7,14.4,85.8l-47.9,25.8l-14-70.4l-95.4,39.9c6.4,18.4,26.8,49.3,36.8,68.3c9.8,18.4,4.8,19.6,28.4,23.9
	c108,19.7,74.1,33.1,148.7-25.5C2948.5,1753.3,2936.9,1780.3,2937.6,1656.8z"/>
<path class="st9" d="M2704.5,1562.6c-28.3-3.4-92.1-23.3-114.2-21.6l-15.7,270.7l87.5-5.1c8.3-41.4,14.9-82,22.5-123.1
	C2688.6,1661.3,2706.2,1579.5,2704.5,1562.6z"/>
<path class="st7" d="M2443.2,1540.8l6.9,95.6l-62.3-0.9l-11.3-99.7c-13.6-0.9-82.3,10-96.9,13.3c-12.7,2.9-10.8,3.7-7.3,17.7
	l55.3,250.3l80.1-14.6c0.9-26.7-6.3-54.9-8.4-81.9l59.3-11.6l8.4,95.4l79.6-1.8l1.8-264.4L2443.2,1540.8z"/>
<path class="st6" d="M1845.5,1645.1l91-1.3l0.2-101.4l-253.9,29.6c-2,16.6,35.2,254.6,41.8,286.5l96.5-6.1c5.2-18.7-0.7-75,1-99.7
	l83,5.7l4.7-83.8l-94,8.4l1.6-34.3C1824.5,1642.5,1825.8,1645.1,1845.5,1645.1z"/>
<path class="st9" d="M1633.7,1670.5c15.6,4.4,15.4,6.6,18.8-7.8l13-73.3l-217.8-26.3c-7.5,41.9-21.4,92.4-31.6,134
	c-8.5,34.2-2.7,37.5,6.2,68.4c5.5,19.1,11.5,45.3,19,63.7l208,8.3l-10.8-79.6l-108.6,4.8l-2.4-27.2l75.4,9.5l12.7-57.1
	c-0.1-4.5-0.6-5-1.3-6.9l-81.6-9l5.6-25.8C1560.4,1648,1610,1663.9,1633.7,1670.5z"/>
<path class="st7" d="M1384.7,1635.4c-2.6-5.1-101.4-56.6-117.8-67.1c-13.7-8.8-21.7-4.4-37.7-0.5c-17,4.1-100.3,20.9-110,27.1
	l36.6,242.8l100.4-5.6c63.5-3.7,46.4,5.3,79.1-29.5c9.3-9.9,16.5-19.1,25.8-28.3c16.1-16,14.3-10.7,16.8-37.6
	C1380.1,1712.8,1387.1,1655.7,1384.7,1635.4z M1284.6,1743.1c-2.9,11.7-10.9,10.8-23.3,15c-7.8,2.7-17.7,8.1-26.3,7.3l-9.7-109.2
	c11.2-0.1,54.1,18.1,68.9,22.6C1294.6,1689.6,1287.4,1731.8,1284.6,1743.1z"/>
<path class="st8" d="M1061.8,1715.6c-13,3.1-38.6,29.7-51.6,38.2c-7.6,5-50.6-14-61.3-18l-3.3-55c20.2-8.3,40-35.7,51.3-32.2
	c15.9,4.9,43.6,25.6,58.3,28.4l32.6-76c-125.2-46.7-64.5-46.5-162.7-19.2c-24.1,6.7-21.6,3.5-34.7,21.9c-7.8,10.9-15,20.3-22.8,31.4
	c-30.9,44.2-29,26.4-16.1,74.3c4,15,8.2,30.6,12.1,44.1c2.5,8.6,9,37.1,11.7,42.5c3.9,7.9-1.3,3.2,8.5,6.9c4.1,1.5,6.1,1.9,10,3
	l61.2,19c54.3,16.2,32,24.1,113.7-21.3c10.7-5.9,27.2-12.2,33.6-20.2C1092,1767.5,1069.8,1724.9,1061.8,1715.6z"/>
<path class="st6" d="M806.3,1723.6c-5.1-6-14.2-16.4-18.8-23l29.7-70c-6.4-7.7-42.5-31.2-53.3-39.1c-34.7-25.1-36.3-31.8-59.8-26.9
	c-46.9,9.9-104.9,23.2-151.6,29.4c3.2,28.7,32.6,233.2,38.6,243.6l179-6.4c5.7-5.6,51.3-77.3,54.3-85
	C819.3,1738.6,812.5,1730.9,806.3,1723.6z M660.2,1688.9l-2.5-54.4l60.3,17.2l-4.5,26.5C705.2,1682.8,670.1,1690.3,660.2,1688.9z
	 M716.8,1772.3l-48.7,5.8l-3.2-42.1l56.2,1.5L716.8,1772.3z"/>
<path class="st9" d="M491.3,1580.5c-12.6-4.1-131.1-18.9-143.4-17.2c-1.9,5.5-3,9.5-5,15.2c-17,49-66.4,199.9-69.5,240
	c27,3.3,73.3,19.7,96.9,18.7c-1.8-13,6.6-41,9.3-55.7l70.5-4.1l10.4,59.8c12.3,2.7,85.4-7,105.1-9.3L491.3,1580.5z M397.2,1705.7
	c-3.9-10.2,10.1-54.6,13.3-59.2l11.3-0.1l16.2,64.5L397.2,1705.7z"/>
<path class="st8" d="M2271.9,1642.6l-150.4,11.8l3.9,76.1l61.2-15l6.6,13.2c-6.1,5.4-47.1,21.6-55.9,20.5
	c-4.8-0.6-43.8-21.2-51.4-25.7c-1.7-17.1-0.8-52.3,0.3-70.1c0.9-14.6,16-23.2,32.1-36.5c28.6-23.7,22.3-3.5,93.7,17.8
	c4.3-5.6,36.4-79.7,38.2-87.5c-12-7.4-79.9-28.9-97.2-34.5c-20.6-6.6-79.6,15.5-104.1,21.9c-36,9.4-27.3,11.2-62.9,66.8
	c-27.9,43.5-33.7,40.4-26.6,63.3c12.4,39.9,25.3,90.7,37.8,125.7c4.3,12,7.6,10.4,19.5,14.3c121.6,39.9,82.5,48.7,167,17.6
	c17.4-6.4,83.5-28.9,93.2-36.5L2271.9,1642.6z"/>
<path class="st8" d="M4379.1,1591.1c-29.1-31.3-34.7-42.6-60-45.9c-136.6-17.8-83.9-28.3-163.4,51.9c-38,38.3-30.1,26.2-15.2,97.6
	c13.6,65.4,3.5,62.5,32.2,73.9l74.7,29.2c28.8,11.4,22.4,13.2,51.6,0.4c31.1-13.5,63.8-26.4,95.5-41.5c1.9-40.5,13.5-87.9,14.6-126
	C4409.5,1616.2,4394.2,1607.3,4379.1,1591.1z M4302.9,1698.5c-27.7,25.1-12.2,26.4-71.7,4.3l-3.4-59.7c11.6-7.1,51.2-17.8,65.8-21.2
	l29,57.4C4316.8,1687.1,4310.3,1691.8,4302.9,1698.5z"/>
<path class="st6" d="M3573.9,3155.3c-11.4-1.3-66.1,14.8-82.7,17.5c4.8-8.1,13.3-12.7,20.2-19.3l60-56.2l-20.1-63.7l-171.4,7
	l1.7,78.8l95.7-16.4c-2.8,6.3-72.2,77.1-83.1,89.2l7.8,48.8l173.4-12.1L3573.9,3155.3z"/>
<path class="st7" d="M3329.6,3049.4c-5.2-3-29.4-17.7-35.7-19.2c-10.9,10.2-45,69.7-53.8,75.5l-21.1-68.1
	c-2.3-7.9-3.8-15.9-8.7-22.1l-89.6,28.2c1.4,8.3,60.1,92.7,71.5,109.9c5.5,8.3,11,12.4,8.5,25.7c-2.2,12.1-12.6,49.9-11.3,57.3
	l86.1,4.4l-5.1-70.5c7.3-6.1,17.4-17.4,24.5-25c7.2-7.7,15.4-16,23.9-24.3c9.1-8.8,44.4-44.4,47.9-51.2
	C3356.3,3065.9,3339.5,3055.1,3329.6,3049.4z"/>
<path class="st8" d="M3053.9,3144.1c2.9-6.1,23.2-26.4,29.7-33.8c6.8-7.7,25.2-25.6,28.4-33.6c-11.6-9.8-23.4-15.7-35.4-24.6
	c-10.5-7.7-25.4-19-36-23.9c-10,8.9-34,54.3-44.3,63.6c-14.5-11-40.2-51.8-53.9-59.5c-5,2.8-65.2,60.3-67.6,65.8
	c12.8,8.1,25.2,18.1,38.2,27.2c10.1,7.1,32.4,20.9,37.5,28.3l-43.1,49.7c-5.3,6.1-11.4,10.1-13.6,17.7c5.8,5.4,11.8,9.1,17.6,13.8
	c4.8,3.8,10.8,8.5,16.2,12.6c11.4,8.3,23.5,18.9,34.1,25.1c5.6-3.8,38-54.6,44.7-64.3c5.9,3.4,22,20.2,28.4,26.4
	c6.1,5.7,21.2,23.5,29,26.6c9.5-10.9,52.9-56.9,57-65.2L3053.9,3144.1z"/>
<path class="st9" d="M2787.7,3090.1l-24.7,91.1l-29.7-45.9c-12.1,5.6-26.7,31.9-38.7,39.1l-7.2-115.1l-93.5,12.9
	c1.2,16.1,26.9,140.2,33.3,174.6c1.6,8.8,0.2,8.6,7.2,10.5c6.5,1.7,59.7,7.1,66.5,6.2l25.1-41.5c4.3,11.7,14.4,40.4,19.4,48.2
	l66.7-3.2c3.5-8.7,47.6-142.8,49.5-154.3L2787.7,3090.1z"/>
<path class="st6" d="M2489.5,3062c-2.1,16.2-15.1,103-20,111.1c-5.7-17.1-40.5-122.4-45.4-128.1c-26.7,14-57.3,29.6-83.8,43.6
	c2.4,8.7,37.7,71.3,45.4,84.8c10.8,18.9,36.7,69.5,45.7,82.5l84.7-5.5c8.1-28.6,20.4-61.8,28.9-87c5.1-15.2,26.5-76.5,27.8-87.1
	L2489.5,3062z"/>
<path class="st9" d="M2334.9,3104.6l-88.2-12.4l-6.2,106.3l-47.7,6.7l15.1-135l-93.7-10.8c-4.9,0.8-2.2-0.1-5,1.8
	c-2.6,8.8-5,78.1-5.4,92.9c-2.8,91.6-16.9,60.6,34.3,105c15.4,13.4,12.6,10.2,38.3,10.5c30.6,0.3,66.9,1.9,96.8,0
	c10.7-10.6,18.5-20.4,28.4-30.5c14.8-14.9,14-12.6,18.4-38C2322.4,3186.1,2336.8,3114,2334.9,3104.6z"/>
<path class="st7" d="M2076.4,3122.7c0.8-8-1.1-57.4-3.6-61.4l-2.5-1.2c-5.7-1.6-14.8,0.1-22.7,0.2c-9.1,0.2-18.3,0.5-27.4,0.8
	c-17.8,0.5-34.6,1.8-52.9,2.5c-32.6,1.3-73.7,1.2-105.1,5.2l7.5,82.3c16.4,3.9,54.3-8.5,73.2-6.2l2,124.6c6.5,2.2,72.4-0.9,83.5-2.2
	c1.7-17.9-21.7-117.2-19.9-134.6L2076.4,3122.7z"/>
<path class="st8" d="M1742.4,3131.7l12.7-19.2c14.4,5.7,42.6,30.9,55.5,33.5c5.6-14.4,23.4-38.9,26.1-52.1
	c-7.3-6.8-39-22.4-49.6-28.5c-13.5-7.8-11.4-6.6-29.5-3.8l-66.6,9.4c-9.1,2.4-12.1,13.1-16.9,21.3c-6.7,11.4-24.7,39.2-27.8,48.8
	c10.5,4.1,100.2,49.4,103.9,53c-3.4,6.8-7.2,11.5-12.1,18.4c-15.1-2.2-47.6-29-63.9-32.4c-4.2,4.5-26.9,40-28.4,47.7
	c15.5,5.9,51.8,42,66.3,42.6c11.4,0.4,91.8-7,99-9.9c3.8-2.8,31.7-63.5,38.5-74.9C1840.7,3176.1,1754.9,3142.9,1742.4,3131.7z"/>
<path class="st6" d="M1625.3,3224.6l-39.1-34.3c1.7-1.8,0.1-0.2,2.8-2.6l6.7-5.1c15-10.8,19.8-10.7,22.1-22.5
	c3.4-16.8,7.7-36.3,10.2-50.9c-4.2-6-27.2-20.8-34.7-26.4c-7.8-5.8-29.1-23.5-37.7-23.3l-109.3,13.9l15.9,187l60.6-3l0.2-54.7
	c3.4,2.8,45,62.5,47.3,67.8l67.5-33.7C1635.5,3232.2,1630.2,3228.7,1625.3,3224.6z M1555.8,3156.2l-32.8,7.3l-2.7-51.8
	c10.5,1.4,33.3,7.5,40.7,12.2L1555.8,3156.2z"/>
<path class="st9" d="M1405.5,3210.6c5.2-9.4,16.4-8.3,17.4-23.4c0.7-9.8,5.6-68.9,4.2-73.3c-1.5-4.8-33.7-30.2-41.2-37.4
	c-14.9-14.1-13.6-13.2-25.4-14c-18.4-1.2-58.5-4.4-75.8-2.5l-40,52.6c-3.8,5.1-6.6,8.5-10.3,13.2c-4.2,5.4-5.5,7.3-2.9,15.6
	l19.4,71.7c2.2,8.3,0.6,11.8,8.5,15l84.9,27.7c4.6-3.7,15.4-15.1,20.7-17c7.2,10.1,17.6,21.3,24.1,31.5c5.6-2.2,46.6-32.5,49.8-37.8
	C1429.7,3224.4,1415.2,3218.6,1405.5,3210.6z M1342.9,3191.8c-6.3-0.4-36-11.8-40-14.8l-2.4-40.2c5.1-3.6,37.6-17.8,44.2-18.9
	c4,6.8,8.8,13.2,14,20.2c4.5,6.1,11.4,14.3,13.4,20.5C1363.3,3170.1,1351.4,3180.2,1342.9,3191.8z"/>
<path class="st7" d="M1179,3069.3c-8.6-6.1-29.7-24.7-39.3-24.3c-21.2,1-83.8,12.7-113.6,15.5l15.1,195.2
	c11.6,0.9,51.2-0.7,64.8-4.4l0.5-53.7c15.1-1.1,39.1,4,51.7,2c7.5-1.2,23.9-16.4,32.2-22.2c14.8-10.4,12.2-15.9,16.9-36.9
	c3.1-13.7,7.5-27.7,9.3-43.7C1207.8,3087.8,1189.3,3076.7,1179,3069.3z M1139.5,3151.2l-33.2,4.3l-1.8-54l42.8,11.9L1139.5,3151.2z"
	/>
<path class="st6" d="M3608.9,2789.9l6.2,92.9c-5.7-5.7-12-15.4-17-22.7l-49.6-70.2l-70.8,21.7l29,182.8l63.8-8.7l-4.1-74.8
	c14,13.5,49,64.1,61.3,74l57.7-16.7l0.3-184.7L3608.9,2789.9z"/>
<path class="st9" d="M3466.2,2913.7c-4-31.1-9.1-62.9-12.3-94l-49.3-6.5c-5.8,9.8-26.7,40.1-34.3,47.5l-15.3-55l-52.8-4.4
	l-35.7,82.1c-5.8,13.9-33.2,74.9-34.9,83.8l72.2,32l29.1-92.2c10.5,11.1,18.1,32.6,28.8,43.6c9.7-6.2,30-27.7,39-31.7l0.5,94.2
	l76.3-4.4C3479.1,2994.5,3468.6,2932,3466.2,2913.7z"/>
<path class="st7" d="M3135.1,2917.3l-2.2-142.5c-11.2-0.8-79.6,8-88.5,12.1l30.3,205.6c14.8,3,129.3-9.9,154.6-12.8l2.4-88.1
	C3212,2893.7,3148.1,2920.5,3135.1,2917.3z"/>
<path class="st8" d="M2971.1,2882.8l57.9-65.5c-6.5-6.1-56.2-41-64-44.1c-11.8,10.4-41.3,72.8-49.9,76.1c-0.7-11.6-1.9-22.3-3-33.7
	l-4.6-30.4c-0.1-0.8-0.4-1-0.6-1.5c-7.1,0.4-71.8,6-73.8,7.1c-4.1,2.4-2.5,0.3-1.9,6.8l18,128.4c2.6,19.3,5.4,50.7,9.7,68.5
	l66.5-5.3l-0.3-60.7c5.8,4.9,10,9.5,14.9,15.6c5.5,6.8,8.3,9.1,14.8,16.1c6.5,7.1,23.7,28.4,30.2,32c9.4-4.4,22-17.3,30.6-24.4
	c10.4-8.5,18.7-15.5,28.7-23.6C3034.6,2931.2,2986.2,2899,2971.1,2882.8z"/>
<path class="st6" d="M2798.8,2873.9c0.2-25.7,1.2-50.9-1.1-75.7c-0.1-0.7-0.3-0.8-0.5-1.8l-87.2-4.8c1.6,19.3,8.5,47,12.1,66.8
	c3.2,16.8,11.4,50.5,11.1,65.9l-36.8,19.8l-10.8-54.1l-73.3,30.7c4.9,14.1,20.6,37.9,28.3,52.5c7.5,14.1,3.7,15.1,21.8,18.4
	c83,15.1,56.9,25.4,114.3-19.6C2807.1,2948,2798.2,2968.7,2798.8,2873.9z"/>
<path class="st9" d="M2619.6,2801.5c-21.7-2.6-70.8-17.9-87.8-16.6l-12.1,208l67.2-3.9c6.4-31.8,11.4-63,17.3-94.6
	C2607.4,2877.3,2620.9,2814.5,2619.6,2801.5z"/>
<path class="st7" d="M2418.8,2784.7l5.3,73.5l-47.9-0.7l-8.7-76.6c-10.5-0.7-63.2,7.7-74.5,10.2c-9.8,2.2-8.3,2.8-5.6,13.6
	L2330,2997l61.6-11.2c0.7-20.5-4.8-42.2-6.5-62.9l45.6-8.9l6.5,73.3l61.2-1.4l1.4-203.2L2418.8,2784.7z"/>
<path class="st6" d="M1959.6,2864.9l69.9-1l0.2-77.9l-195.1,22.7c-1.5,12.8,27,195.6,32.1,220.2l74.2-4.7c4-14.4-0.5-57.6,0.8-76.6
	l63.8,4.4l3.6-64.4l-72.2,6.5l1.2-26.4C1943.4,2862.9,1944.4,2864.9,1959.6,2864.9z"/>
<path class="st9" d="M1796.8,2884.5c12,3.4,11.8,5.1,14.4-6l10-56.3l-167.4-20.2c-5.8,32.2-16.4,71-24.3,103
	c-6.5,26.3-2.1,28.8,4.8,52.6c4.2,14.7,8.8,34.8,14.6,48.9l159.8,6.4l-8.3-61.2l-83.5,3.7l-1.8-20.9l57.9,7.3l9.8-43.9
	c-0.1-3.5-0.5-3.8-1-5.3l-62.7-6.9l4.3-19.8C1740.5,2867.2,1778.6,2879.3,1796.8,2884.5z"/>
<path class="st7" d="M1605.5,2857.5c-2-3.9-77.9-43.5-90.5-51.6c-10.5-6.8-16.7-3.4-29-0.4c-13.1,3.2-77.1,16.1-84.5,20.8
	l28.1,186.6l77.1-4.3c48.8-2.8,35.7,4.1,60.8-22.7c7.1-7.6,12.7-14.7,19.8-21.7c12.4-12.3,11-8.2,12.9-28.9
	C1601.9,2916.9,1607.3,2873,1605.5,2857.5z M1528.6,2940.2c-2.2,9-8.4,8.3-17.9,11.5c-6,2.1-13.6,6.2-20.2,5.6l-7.5-83.9
	c8.6-0.1,41.6,13.9,52.9,17.4C1536.2,2899.1,1530.7,2931.5,1528.6,2940.2z"/>
<path class="st8" d="M1357.4,2919c-10,2.4-29.7,22.8-39.7,29.4c-5.8,3.8-38.9-10.8-47.1-13.8l-2.5-42.3
	c15.5-6.4,30.7-27.4,39.4-24.7c12.2,3.8,33.5,19.7,44.8,21.8l25.1-58.4c-96.2-35.9-49.6-35.7-125-14.8c-18.5,5.1-16.6,2.7-26.7,16.8
	c-6,8.4-11.5,15.6-17.5,24.1c-23.7,34-22.3,20.3-12.4,57.1c3.1,11.5,6.3,23.5,9.3,33.9c1.9,6.6,6.9,28.5,9,32.7c3,6.1-1,2.5,6.5,5.3
	c3.2,1.2,4.7,1.5,7.7,2.3l47,14.6c41.7,12.4,24.6,18.5,87.4-16.4c8.2-4.5,20.9-9.4,25.8-15.5
	C1380.6,2958.9,1363.5,2926.3,1357.4,2919z"/>
<path class="st6" d="M1161,2925.3c-3.9-4.6-10.9-12.6-14.4-17.7l22.8-53.7c-4.9-5.9-32.7-24-41-30c-26.7-19.3-27.9-24.4-46-20.7
	c-36,7.6-80.6,17.8-116.5,22.6c2.5,22.1,25.1,179.2,29.7,187.2l137.5-4.9c4.4-4.3,39.4-59.4,41.7-65.3
	C1171,2936.7,1165.8,2930.9,1161,2925.3z M1048.8,2898.6l-1.9-41.8l46.3,13.2l-3.5,20.4C1083.3,2893.8,1056.4,2899.6,1048.8,2898.6z
	 M1092.2,2962.6l-37.4,4.5l-2.5-32.4l43.2,1.2L1092.2,2962.6z"/>
<path class="st9" d="M919,2815.3c-9.7-3.2-100.7-14.5-110.2-13.2c-1.5,4.2-2.3,7.3-3.8,11.7c-13.1,37.7-51,153.6-53.4,184.4
	c20.7,2.5,56.3,15.1,74.5,14.4c-1.4-10,5.1-31.5,7.1-42.8l54.2-3.2l8,46c9.5,2.1,65.6-5.4,80.8-7.1L919,2815.3z M846.7,2911.5
	c-3-7.8,7.8-42,10.2-45.5l8.7-0.1l12.4,49.6L846.7,2911.5z"/>
<path class="st8" d="M2287.2,2863l-115.6,9.1l3,58.5l47-11.5l5.1,10.1c-4.7,4.1-36.2,16.6-43,15.8c-3.7-0.5-33.7-16.3-39.5-19.7
	c-1.3-13.1-0.6-40.2,0.2-53.9c0.7-11.2,12.3-17.8,24.7-28c22-18.2,17.1-2.7,72,13.7c3.3-4.3,28-61.2,29.4-67.2
	c-9.2-5.7-61.4-22.2-74.7-26.5c-15.8-5.1-61.2,11.9-80,16.8c-27.7,7.2-21,8.6-48.3,51.3c-21.4,33.4-25.9,31-20.4,48.6
	c9.5,30.7,19.4,69.7,29,96.6c3.3,9.2,5.8,8,15,11c93.4,30.7,63.4,37.4,128.3,13.5c13.4-4.9,64.2-22.2,71.6-28L2287.2,2863z"/>
<path class="st8" d="M3906.4,2823.4c-22.4-24.1-26.7-32.7-46.1-35.3c-105-13.7-64.5-21.7-125.6,39.9c-29.2,29.4-23.1,20.1-11.7,75
	c10.5,50.3,2.7,48,24.7,56.8l57.4,22.4c22.1,8.8,17.2,10.1,39.7,0.3c23.9-10.4,49-20.3,73.4-31.9c1.5-31.1,10.4-67.5,11.2-96.8
	C3929.8,2842.6,3918,2835.9,3906.4,2823.4z M3847.9,2906c-21.3,19.3-9.4,20.3-55.1,3.3l-2.6-45.9c8.9-5.5,39.3-13.7,50.6-16.3
	l22.3,44.1C3858.6,2897.2,3853.6,2900.8,3847.9,2906z"/>
<path class="st1" d="M3071.3,1033.8c-2.3-47.4-5.5-52.3-9.2-58l-4.6-7.2l-13.5-6.2l-2.2-0.6c-5.1-1.5-10.8-2.2-17.5-2.2
	c-5.2,0-10.2,0.4-15.1,0.8c-3.6,0.2-7,0.6-9.8,0.7c-10.5,0.2-21,0.5-31.1,0.8l-10.3,0.3c-15.5,0.5-30.8,1.3-45.6,2.2
	c-11.1,0.6-22.5,1.2-34,1.7c-13.2,0.5-27.2,0.9-42,1.3c-32.7,0.9-66.3,1.8-96.8,4.5v-14.8L2564,971.9l4.5,66.4l-52.2-73.8l-150.7,46
	l3.2,20.6c-3.7-4-7-7.7-10.1-11.1c-22.3-24.8-37-41.2-71.9-45.7c-26.1-3.4-46-6.6-62-9.1c-21.4-3.4-35.5-5.6-47.3-5.6
	c-31.2,0-44.1,15.6-62.1,37.1c-4.5,5.4-9.8,11.8-16.5,19.3l0.2-84l-347.8,40.5l-2.7,22.8c-3.3,28,45.4,324.3,48.6,339.3l5.2,24.7
	l157.1-9.9l5.6-20c4.5-16.1,3.9-41.1,2.7-77.4c-0.2-4.7-0.3-9.4-0.5-14.1l93.2,6.4c5.5,22.2,14.8,31.5,43.4,43l85.9,33.6
	c4.8,1.9,8.7,3.6,12,5c10.3,4.3,18.4,7.8,29.2,7.8l0,0c11.8,0,21.1-4.1,36.7-10.9l4-1.7c12.2-5.3,24.4-10.4,37.2-15.9
	c24.1-10.2,49-20.6,73.6-32.3l15.8-7.5l0.8-17.5c0.2-6,0.8-12.3,1.4-18.7l17.1,108l150.6-20.6l-2.7-48.9
	c17.7,22.6,30.1,37.5,39.5,45.1l11.8,9.5l122.1-35.3l0.2-130.9c1.9,0.1,3.9,0.2,5.9,0.2c15,0,32.6-3,49.8-5.8
	c6.4-1.1,13-2.2,19.1-3.1l2.8,177.1l19.7,6.5c5.2,1.7,11.3,2.6,30.2,2.6l0,0c32.5,0,93.2-2.9,107.3-4.5l23.6-2.7l2.2-23.6
	c1.5-15.7-3.8-46.9-15.3-109.2c-4-21.5-9.3-50.3-12.3-70.3l97.5-14.7l2.3-22.4C3073,1076.6,3072.1,1048.7,3071.3,1033.8z
	 M2230.8,1171.9c-4.7-1.6-11.3-4.2-18.2-6.7c-0.8-0.3-1.7-0.7-2.7-1l-1.7-29.4c8.5-2.9,19.3-6.2,30-9.2l13.4,26.5
	c-0.1,0.1-0.2,0.2-0.2,0.2c-2.2,1.8-4.3,3.7-6.6,5.8C2238.8,1163.6,2234.2,1168.4,2230.8,1171.9z"/>
<g>
	<path class="st7" d="M3043,1082.5c1.2-12.1-1.6-86-5.4-92.1l-3.7-1.7c-8.6-2.4-22.1,0.2-34,0.4c-13.7,0.2-27.5,0.7-41.1,1.2
		c-26.6,0.8-51.9,2.7-79.3,3.8c-48.9,2-110.5,1.9-157.6,7.8l11.2,123.4c24.6,5.9,81.5-12.7,109.5-9.3l3,186.6
		c9.7,3.2,108.5-1.3,125.2-3.2c2.5-26.9-32.5-175.6-29.8-201.6L3043,1082.5z"/>
	<path class="st9" d="M2595,997.3l9.3,139.2c-8.5-8.5-17.9-23.1-25.4-34.1l-74.3-105.1l-106.2,32.5l43.5,274l95.6-13.1l-6.2-112
		c21,20.3,73.5,96.1,91.9,110.9l86.5-25.1l0.5-276.8L2595,997.3z"/>
	<path class="st6" d="M1964.9,1082l104.8-1.5l0.2-116.8l-292.3,34c-2.2,19.1,40.5,293.1,48.2,329.9l111.1-7
		c6-21.6-0.8-86.4,1.1-114.9l95.6,6.6l5.4-96.5l-108.3,9.7l1.8-39.5C1940.7,1079.1,1942.2,1082,1964.9,1082z"/>
	<path class="st8" d="M2352.3,1055c-33.5-36-40-49.1-69.2-52.9c-157.4-20.5-96.6-32.5-188.2,59.7c-43.7,44-34.6,30.2-17.6,112.4
		c15.6,75.3,4.1,71.9,37,85.1l86,33.6c33.2,13.2,25.8,15.2,59.4,0.5c35.8-15.6,73.4-30.5,110-47.8c2.2-46.6,15.6-101.2,16.8-145.2
		C2387.2,1083.9,2369.7,1073.7,2352.3,1055z M2264.6,1178.7c-32,28.9-14.1,30.4-82.6,5l-3.9-68.8c13.3-8.2,59-20.5,75.8-24.5
		l33.5,66.1C2280.5,1165.6,2273,1171,2264.6,1178.7z"/>
</g>
<path class="st10" d="M1021.3,2331.6l-19.8,158.9l-98.4,32.1l-79.6-80l16.2-138l55.5-49l64.5,3.6L1021.3,2331.6z M907,2406.2
	l15.9,13.3l17.3-12.3l-3.2-50.8l-22-9.4L907,2406.2z"/>
<path class="st11" d="M1190.3,2449.1l76-9.7l12.3,83.2h-256.9l7.2-78.2l85.8,4.7v-97.7l-45,28.5l-47.9-65.2l96.9-58.7l93,5
	L1190.3,2449.1z"/>
<path class="st12" d="M1352.8,2255.6l65.2,0.4l54.8,40.4l23.8,99.8l-71.7,47.2l78.6-6.5l20.5,85.8l-207.6-2.9l-27.4-53l106.7-84.3
	l-7.6-23.1l-17.3-13.7l-43.6,29.9l-49-70.6L1352.8,2255.6z"/>
<path class="st13" d="M1603.6,2256.3l81.1,11.5l38.9,67l-25.2,36.4l31.3,23.1l2.2,81.4l-42.9,46.8l-96.2-9l-53-53.7l42.9-41.8
	l36,33.9l33.9-9l1.1-20.5l-53-18l2.2-32.4l42.9-28.5l-11.2-11.9l-60.2,27.7l-34.6-55.1L1603.6,2256.3z"/>
<path class="st10" d="M2009.3,2378.1v64.5l-50.8,3.2l9.7,65.9l-92.6,9.7l-1.4-75.7h-110.3l-1.4-67l73.5-125l100.5,6.8l15.9,114.9
	L2009.3,2378.1z M1870.9,2375.5l-2.9-37.5l-29.2,37.5H1870.9z"/>
<path class="st11" d="M2226.2,2327.3l-102-1.1l2.2,16.2l58.4,2.2l70.3,38.2l-0.4,80.4l-27,43.6l-124.3,12.6l-65.6-30.6l29.2-55.1
	l44.7,15.5l40.4,1.8l15.9-18.4l-18-16.9l-81.8,1.8l-29.2-50.4l-3.6-104.9l206.1-6.1L2226.2,2327.3z"/>
<path class="st12" d="M2396,2254.1l64.9,13.3l-24.5,75.7l-58-21.6l-27,21.3l-3.2,20.2l77.1,2.2l30.6,49.7l-0.7,64.9l-42.9,42.9
	h-87.9l-49-42.9v-90.4l10.1-73.5l45.4-51.9L2396,2254.1z M2351.3,2435l0.7,21.3h28.5l5.8-23.1l-18-6.5L2351.3,2435z"/>
<path class="st13" d="M2720.3,2261.3l-42.2,262.7l-104.5-24.9l57.3-156.7l-123.2,10.1l-18.4-96.2L2720.3,2261.3z"/>
<path class="st10" d="M2940.4,2335.9l-31.3,24.9l41.8,34.2l5.4,105.9l-58.7,23.1h-93.7l-55.5-32.4l6.1-95.1l44-33.5l-33.5-27
	l25.2-81.4l124.3,10.4L2940.4,2335.9z M2852.1,2304.9l-15.9,6.5v13l15.9,6.5l15.9-6.5v-13L2852.1,2304.9z M2858.6,2420.9l-20.9,8.6
	v17.3l20.9,8.6l20.9-8.6v-17.3L2858.6,2420.9z"/>
<path class="st11" d="M3165.6,2309.2l-3.2,98.4l-27.7,69.5l-119.3,45.4l-41.8-57.7l95.1-24.9l19.8-35l-65.6,5l-49.4-54.1l13-77.1
	l97.3-25.2L3165.6,2309.2z M3086,2350l3.2-16.9l-14.4-11.9l-20.2,11.9v16.9H3086z"/>
<path class="st10" d="M3362.9,2295.8l54.1,94.3l-38,70.2l-107,24.2l-49.5-84l49.5-104.7H3362.9z"/>
<path class="st13" d="M3604.4,2301.6l-27.6,132.3l-98.9,92h-61l84-119.6l11.5-110.4L3604.4,2301.6z"/>
<g>
	<path class="st12" d="M3694,2429.7l49.4,2.6l-14.5,71.1l-53.3,49.4h-32.9l45.4-63.8L3694,2429.7z M3682.8,2288.9l44.1-26.3
		l53.3,30.3l2,45.4l-45.4,42.1l-48-27L3682.8,2288.9z"/>
</g>
<g>
	<polygon points="1267.6,3343.3 1198.7,3339.4 1142.4,3389.2 1127.6,3515.1 1206.6,3594.5 1309.6,3560.9 1327.9,3414.2 	"/>
	<path class="st10" d="M1303.4,3419.2l-15.2,122.1l-75.6,24.6l-61.2-61.5l12.5-106.1l42.6-37.7l49.6,2.8L1303.4,3419.2z
		 M1215.7,3476.5l12.2,10.2l13.3-9.4l-2.5-39l-16.9-7.2L1215.7,3476.5z"/>
</g>
<g>
	<path d="M1278.8,3591.2h249.4l-16.6-112.8l-51.7,6.6l15.8-139.6l-102.9-5.6l-102.1,61.9l62.1,84.5l-44-2.4L1278.8,3591.2z
		 M1352.4,3478.5v8.9l-12.9-0.7L1352.4,3478.5z"/>
	<path class="st11" d="M1433.3,3509.5l58.4-7.5l9.4,64h-197.4l5.5-60.1l65.9,3.6v-75l-34.6,21.9l-36.8-50.1l74.5-45.1l71.4,3.9
		L1433.3,3509.5z"/>
</g>
<g>
	<polygon points="1693.3,3482.6 1695.2,3481.3 1671.2,3380.7 1616.3,3340.3 1551.6,3339.9 1468.8,3394.7 1528.6,3480.8 
		1480.3,3518.9 1516.4,3588.8 1719.4,3591.6 	"/>
	<path class="st12" d="M1558.2,3360.8l50.1,0.3l42.1,31l18.3,76.7l-55.1,36.3l60.4-5l15.8,65.9l-159.5-2.2l-21-40.7l82-64.8
		l-5.8-17.7L1572,3430l-33.5,23l-37.7-54.3L1558.2,3360.8z"/>
</g>
<g>
	<polygon points="1870.9,3457.7 1855.8,3446.6 1870.7,3425 1827.9,3351.1 1745,3339.4 1671.4,3394.7 1719.4,3471.1 1669.5,3519.7 
		1732.4,3583.4 1826.1,3592.2 1873.1,3540.9 	"/>
	<path class="st13" d="M1750.9,3361.4l62.3,8.9l29.9,51.5l-19.4,28l24.1,17.7l1.7,62.6l-33,36l-73.9-6.9l-40.7-41.3l33-32.1l27.7,26
		l26-6.9l0.8-15.8l-40.7-13.8l1.7-24.9l33-21.9l-8.6-9.1l-46.2,21.3l-26.6-42.4L1750.9,3361.4z"/>
</g>
<g>
	<polygon points="2086.1,3435.1 2039.5,3433 2027.4,3345.1 1917.2,3337.6 1850.2,3451.6 1851.9,3532.2 1936.6,3532.2 1937.7,3592.9 
		2057.8,3580.3 2050.4,3530.6 2086.1,3528.3 	"/>
	<path class="st10" d="M2062.7,3454.9v49.6l-39,2.5l7.5,50.7l-71.2,7.5l-1.1-58.1h-84.7l-1.1-51.5l56.5-96.1l77.3,5.3l12.2,88.3
		L2062.7,3454.9z M1956.3,3453l-2.2-28.8l-22.4,28.8H1956.3z"/>
</g>
<g>
	<polygon points="2250,3433.5 2270,3339.3 2059.1,3345.6 2062.9,3455.1 2084.8,3493 2053.2,3552.8 2131.3,3589.2 2244.4,3577.8 
		2274.6,3529.1 2275,3447.1 	"/>
	<path class="st11" d="M2229.4,3415.9l-78.4-0.8l1.7,12.5l44.9,1.7l54,29.4l-0.3,61.7l-20.8,33.5l-95.5,9.7l-50.4-23.5l22.4-42.4
		l34.3,11.9l31,1.4l12.2-14.1l-13.8-13l-62.9,1.4l-22.4-38.8l-2.8-80.6l158.4-4.7L2229.4,3415.9z"/>
</g>
<g>
	<polygon points="2439.8,3354.7 2360.8,3338.5 2298.2,3347.8 2253.2,3399.2 2244.3,3464.1 2244.3,3545.7 2296.4,3591.2 
		2382.1,3591.2 2428.5,3544.9 2429.2,3479 2409.8,3447.4 	"/>
	<path class="st12" d="M2359.8,3359.7l49.8,10.2l-18.8,58.1l-44.6-16.6l-20.8,16.3l-2.5,15.5l59.3,1.7l23.5,38.2l-0.6,49.8l-33,32.9
		h-67.6L2267,3533v-69.5l7.8-56.5l34.9-39.9L2359.8,3359.7z M2325.4,3498.7l0.6,16.3h21.9l4.4-17.7l-13.8-5L2325.4,3498.7z"/>
</g>
<g>
	<polygon points="2403.8,3339.9 2427.2,3462.1 2506.6,3455.6 2466.1,3566.6 2595.7,3597.4 2636.3,3344.9 	"/>
	<path class="st13" d="M2609,3365.2l-32.4,201.9l-80.3-19.1l44-120.4l-94.7,7.8l-14.1-73.9L2609,3365.2z"/>
</g>
<g>
	<polygon points="2809,3458.8 2791.1,3444.1 2805.9,3432.4 2775.2,3348.4 2646.5,3337.6 2617,3432.9 2632,3445 2613.3,3459.3 
		2607,3557.1 2667.3,3592.3 2749.9,3592.3 2814.5,3566.9 	"/>
	<path class="st10" d="M2778.1,3422.5l-24.1,19.1l32.1,26.3l4.2,81.4l-45.1,17.7h-72l-42.6-24.9l4.7-73.1l33.8-25.8l-25.8-20.8
		l19.4-62.6l95.5,8L2778.1,3422.5z M2710.3,3398.7l-12.2,5v10l12.2,5l12.2-5v-10L2710.3,3398.7z M2715.3,3487.9l-16.1,6.6v13.3
		l16.1,6.6l16.1-6.6v-13.3L2715.3,3487.9z"/>
</g>
<g>
	<polygon points="2893,3336.7 2793.7,3362.4 2779.4,3447.5 2822.9,3495.1 2765.5,3510.1 2827.8,3596 2945.4,3551.2 2972,3484.6 
		2975,3392.3 	"/>
	<path class="st11" d="M2951.2,3402.1l-2.5,75.6l-21.3,53.4l-91.7,34.9l-32.1-44.3l73.1-19.1l15.2-26.9l-50.4,3.9l-37.9-41.5
		l10-59.3l74.8-19.4L2951.2,3402.1z M2890,3433.3l2.5-13l-11.1-9.1l-15.5,9.1v13H2890z"/>
</g>
<g>
	<polygon points="3116.5,3370.9 3018.7,3370.9 2969.2,3475.5 3022,3565.1 3130.8,3540.5 3171.1,3466.1 	"/>
	<path class="st10" d="M3102.8,3391.7l41.5,72.5l-29.2,53.9l-82.2,18.6l-38-64.5l38-80.4H3102.8z"/>
</g>
<g>
	<polygon points="3197.4,3369.5 3186.9,3470.4 3100.3,3593.8 3200.6,3593.8 3288.6,3511.9 3316.7,3377 	"/>
	<path class="st13" d="M3288.4,3396.2l-21.2,101.7l-76,70.7h-46.9l64.5-91.9l8.8-84.9L3288.4,3396.2z"/>
</g>
<g>
	<polygon points="3448.8,3436.2 3446.3,3377.9 3382.6,3341.7 3324.7,3376.3 3331.7,3452.4 3371,3474.4 3336.8,3472.6 3330.7,3533.9 
		3273.4,3614.4 3352.4,3614.4 3405.5,3565.3 3423.4,3477.2 3405.6,3476.3 	"/>
	<g>
		<path class="st12" d="M3357.2,3494.6l37.9,2l-11.1,54.6l-41,37.9h-25.3l34.9-49L3357.2,3494.6z M3348.6,3386.4l33.9-20.2l41,23.3
			l1.5,34.9l-34.9,32.4l-36.9-20.7L3348.6,3386.4z"/>
	</g>
</g>
</svg>
